<svg width="96" height="96" viewBox="0 0 96 96" fill="none" xmlns="http://www.w3.org/2000/svg">
<rect y="0.000488281" width="96" height="96" rx="48" fill="#38B137" fill-opacity="0.05"/>
<circle cx="48" cy="47.9985" r="34.8525" fill="#EBF7EB"/>
<path d="M61.8125 35.7884C60.9492 35.9345 61.4273 35.4896 51.9645 44.9392L43.2188 53.6782L39.2145 49.6872C35.509 45.9884 35.1836 45.6829 34.7984 45.5169C33.5832 44.9857 32.1555 45.404 31.4316 46.4997C31.1262 46.9513 31 47.3962 31 48.0005C31 48.5849 31.1262 49.0298 31.3984 49.4548C31.5047 49.6208 33.8555 52.0247 36.6246 54.7872C42.123 60.279 41.8773 60.0665 42.8203 60.2126C43.3781 60.3056 43.8961 60.2193 44.4738 59.9536C44.8855 59.7611 45.4633 59.1966 54.7203 49.9396C64.1434 40.5165 64.5352 40.1115 64.7477 39.6665C64.9535 39.2283 64.9668 39.1618 64.9668 38.4712C64.9668 37.7939 64.9535 37.7075 64.7609 37.3091C64.2363 36.2001 63.041 35.5825 61.8125 35.7884Z" fill="#38B137"/>
</svg>
