<svg width="233" height="43" viewBox="0 0 233 43" fill="none" xmlns="http://www.w3.org/2000/svg">
<g clip-path="url(#clip0_2017_4871)">
<path d="M18.8051 0.167772C16.8566 0.512107 14.4379 1.52832 12.859 2.66211C9.79354 4.8709 7.61835 8.19668 6.89608 11.7996C6.03944 16.066 6.98006 20.3156 9.57518 23.8514C9.94471 24.3469 12.8422 27.3115 19.183 33.6607C24.1717 38.6662 28.3625 42.815 28.4885 42.8822C28.7824 43.0334 29.4207 43.0334 29.7146 42.8822C29.9834 42.7311 34.2078 38.4982 34.3422 38.2379C34.4598 38.0111 34.4598 37.4568 34.3422 37.1461C34.3002 37.0117 30.2353 32.8797 25.0787 27.7146C16.991 19.6102 15.8404 18.426 15.3785 17.7373C14.4967 16.3936 13.8836 14.9322 13.5476 13.3533C13.3293 12.3455 13.3293 9.74199 13.5476 8.73418C14.3203 5.13965 16.5627 2.13301 19.7373 0.470115L20.6191 -0.00019722L20.1572 0.00820122C19.9053 0.00820122 19.2922 0.0837872 18.8051 0.167772Z" fill="#FFEA57"/>
<path d="M23.6417 1.64609C19.6693 2.35156 16.5954 5.45058 15.9068 9.42305C15.8396 9.82617 15.7892 10.4477 15.806 10.8088L15.8312 11.4639L16.1083 11.0859C17.5529 9.10391 19.9632 8.01211 22.2392 8.31445C23.8517 8.52441 24.9939 9.09551 26.1613 10.2797C27.2951 11.4135 27.8661 12.6061 28.0425 14.1766C28.2105 15.7471 27.7822 17.3764 26.8415 18.6697C26.64 18.9553 25.7497 19.9043 24.8679 20.7861C23.9861 21.6596 23.2638 22.4154 23.2638 22.4658C23.2638 22.575 28.9915 28.3027 29.1091 28.3027C29.2687 28.3027 32.8884 24.5738 33.4175 23.86C34.2574 22.7178 34.8536 21.6344 35.4667 20.1479C35.5339 19.9799 35.6851 19.5096 35.8027 19.098C36.4997 16.6709 36.6005 14.2437 36.105 11.7998C35.282 7.70137 32.4433 3.7793 29.2771 2.35156C27.5806 1.5957 25.439 1.32695 23.6417 1.64609Z" fill="#F3EECA"/>
<path d="M11.3301 34.3242C9.96116 35.7016 8.77698 36.9193 8.70139 37.0369C8.55022 37.2721 8.51663 37.9607 8.6594 38.2379C8.79377 38.4982 13.0182 42.7311 13.2869 42.8822C13.5809 43.0334 14.2192 43.0334 14.5131 42.8822C14.6391 42.815 15.8737 41.6225 17.2594 40.2367L19.7789 37.7088L16.8395 34.7693C15.227 33.1484 13.8832 31.8299 13.858 31.8299C13.8328 31.8299 12.699 32.9553 11.3301 34.3242Z" fill="#F3EECA"/>
<path d="M56.777 21V6.45455H65.4986V8.01705H58.5384V12.9318H64.8452V14.4943H58.5384V21H56.777ZM71.919 21.2273C70.9342 21.2273 70.0701 20.9929 69.3267 20.5241C68.5881 20.0554 68.0104 19.3996 67.5938 18.5568C67.1818 17.714 66.9759 16.7292 66.9759 15.6023C66.9759 14.4659 67.1818 13.474 67.5938 12.6264C68.0104 11.7789 68.5881 11.1207 69.3267 10.652C70.0701 10.1832 70.9342 9.94886 71.919 9.94886C72.9039 9.94886 73.7656 10.1832 74.5043 10.652C75.2476 11.1207 75.8253 11.7789 76.2372 12.6264C76.6539 13.474 76.8622 14.4659 76.8622 15.6023C76.8622 16.7292 76.6539 17.714 76.2372 18.5568C75.8253 19.3996 75.2476 20.0554 74.5043 20.5241C73.7656 20.9929 72.9039 21.2273 71.919 21.2273ZM71.919 19.7216C72.6671 19.7216 73.2827 19.5298 73.7656 19.1463C74.2486 18.7628 74.6061 18.2585 74.8381 17.6335C75.0701 17.0085 75.1861 16.3314 75.1861 15.6023C75.1861 14.8731 75.0701 14.1937 74.8381 13.5639C74.6061 12.9342 74.2486 12.4252 73.7656 12.0369C73.2827 11.6487 72.6671 11.4545 71.919 11.4545C71.1709 11.4545 70.5554 11.6487 70.0724 12.0369C69.5895 12.4252 69.232 12.9342 69 13.5639C68.768 14.1937 68.652 14.8731 68.652 15.6023C68.652 16.3314 68.768 17.0085 69 17.6335C69.232 18.2585 69.5895 18.7628 70.0724 19.1463C70.5554 19.5298 71.1709 19.7216 71.919 19.7216ZM79.4208 21V10.0909H81.0401V11.7386H81.1538C81.3526 11.1989 81.7125 10.7609 82.2333 10.4247C82.7541 10.0885 83.3413 9.92045 83.9947 9.92045C84.1178 9.92045 84.2717 9.92282 84.4563 9.92756C84.641 9.93229 84.7807 9.93939 84.8754 9.94886V11.6534C84.8185 11.6392 84.6883 11.6179 84.4847 11.5895C84.2859 11.5563 84.0752 11.5398 83.8526 11.5398C83.3223 11.5398 82.8488 11.651 82.4322 11.8736C82.0202 12.0914 81.6935 12.3944 81.4521 12.7827C81.2153 13.1662 81.0969 13.6042 81.0969 14.0966V21H79.4208ZM93.7372 16.5398V10.0909H95.4134V21H93.7372V19.1534H93.6236C93.3679 19.7074 92.9702 20.1785 92.4304 20.5668C91.8906 20.9503 91.2088 21.142 90.3849 21.142C89.7031 21.142 89.0971 20.9929 88.5668 20.6946C88.0365 20.3916 87.6198 19.937 87.3168 19.331C87.0137 18.7202 86.8622 17.9508 86.8622 17.0227V10.0909H88.5384V16.9091C88.5384 17.7045 88.7609 18.339 89.206 18.8125C89.6558 19.286 90.2287 19.5227 90.9247 19.5227C91.3414 19.5227 91.7652 19.4162 92.196 19.2031C92.6316 18.9901 92.9962 18.6634 93.2898 18.223C93.5881 17.7827 93.7372 17.2216 93.7372 16.5398ZM98.4833 21V10.0909H100.103V11.7955H100.245C100.472 11.2131 100.839 10.7609 101.346 10.4389C101.852 10.1122 102.461 9.94886 103.171 9.94886C103.891 9.94886 104.489 10.1122 104.968 10.4389C105.451 10.7609 105.827 11.2131 106.097 11.7955H106.211C106.49 11.232 106.909 10.7846 107.468 10.4531C108.026 10.117 108.696 9.94886 109.478 9.94886C110.453 9.94886 111.251 10.2543 111.871 10.8651C112.491 11.4711 112.801 12.4157 112.801 13.6989V21H111.125V13.6989C111.125 12.8939 110.905 12.3187 110.465 11.973C110.025 11.6274 109.506 11.4545 108.909 11.4545C108.142 11.4545 107.548 11.6866 107.127 12.1506C106.705 12.6098 106.495 13.1922 106.495 13.8977V21H104.79V13.5284C104.79 12.9081 104.589 12.4086 104.186 12.0298C103.784 11.6463 103.266 11.4545 102.631 11.4545C102.195 11.4545 101.788 11.5705 101.409 11.8026C101.035 12.0346 100.732 12.3565 100.5 12.7685C100.273 13.1757 100.159 13.6468 100.159 14.1818V21H98.4833ZM115.497 18.017V16.5682L121.889 6.45455H122.94V8.69886H122.23L117.4 16.3409V16.4545H126.008V18.017H115.497ZM122.343 21V17.5767V16.902V6.45455H124.02V21H122.343ZM128.925 21V6.45455H133.84C134.977 6.45455 135.909 6.64867 136.638 7.03693C137.368 7.42045 137.907 7.94839 138.258 8.62074C138.608 9.29309 138.783 10.0578 138.783 10.9148C138.783 11.7718 138.608 12.5317 138.258 13.1946C137.907 13.8575 137.37 14.3783 136.646 14.7571C135.921 15.1312 134.996 15.3182 133.869 15.3182H129.891V13.7273H133.812C134.588 13.7273 135.213 13.6136 135.687 13.3864C136.165 13.1591 136.511 12.8371 136.724 12.4205C136.942 11.9991 137.05 11.4972 137.05 10.9148C137.05 10.3324 136.942 9.82339 136.724 9.38778C136.506 8.95218 136.158 8.616 135.68 8.37926C135.201 8.13778 134.569 8.01705 133.783 8.01705H130.687V21H128.925ZM135.772 14.4659L139.352 21H137.306L133.783 14.4659H135.772ZM145.948 21.2273C144.897 21.2273 143.99 20.9953 143.228 20.5312C142.47 20.0625 141.885 19.4091 141.473 18.571C141.066 17.7282 140.863 16.7481 140.863 15.6307C140.863 14.5133 141.066 13.5284 141.473 12.6761C141.885 11.8191 142.458 11.1515 143.192 10.6733C143.931 10.1903 144.792 9.94886 145.777 9.94886C146.346 9.94886 146.907 10.0436 147.461 10.233C148.015 10.4223 148.519 10.7301 148.973 11.1562C149.428 11.5777 149.79 12.1364 150.06 12.8324C150.33 13.5284 150.465 14.3854 150.465 15.4034V16.1136H142.056V14.6648H148.76C148.76 14.0492 148.637 13.5 148.391 13.017C148.15 12.5341 147.804 12.1529 147.354 11.8736C146.909 11.5942 146.383 11.4545 145.777 11.4545C145.11 11.4545 144.532 11.6203 144.044 11.9517C143.561 12.2784 143.19 12.7045 142.929 13.2301C142.669 13.7557 142.539 14.3191 142.539 14.9205V15.8864C142.539 16.7102 142.681 17.4086 142.965 17.9815C143.254 18.5497 143.654 18.983 144.165 19.2812C144.676 19.5748 145.271 19.7216 145.948 19.7216C146.388 19.7216 146.786 19.66 147.141 19.5369C147.501 19.4091 147.811 19.2197 148.071 18.9688C148.332 18.7131 148.533 18.3958 148.675 18.017L150.294 18.4716C150.124 19.0208 149.837 19.5038 149.435 19.9205C149.033 20.3324 148.535 20.6544 147.944 20.8864C147.352 21.1136 146.686 21.2273 145.948 21.2273ZM154.691 14.4375V21H153.015V6.45455H154.691V11.7955H154.833C155.088 11.232 155.472 10.7846 155.983 10.4531C156.499 10.117 157.186 9.94886 158.043 9.94886C158.786 9.94886 159.437 10.098 159.996 10.3963C160.555 10.6899 160.988 11.142 161.296 11.7528C161.608 12.3589 161.765 13.1307 161.765 14.0682V21H160.088V14.1818C160.088 13.3153 159.864 12.6454 159.414 12.1719C158.969 11.6937 158.351 11.4545 157.56 11.4545C157.011 11.4545 156.518 11.5705 156.083 11.8026C155.652 12.0346 155.311 12.3731 155.06 12.8182C154.814 13.2633 154.691 13.803 154.691 14.4375ZM168.041 21.2557C167.35 21.2557 166.723 21.1255 166.159 20.8651C165.596 20.5999 165.148 20.2188 164.817 19.7216C164.485 19.2197 164.32 18.6136 164.32 17.9034C164.32 17.2784 164.443 16.7718 164.689 16.3835C164.935 15.9905 165.264 15.6828 165.676 15.4602C166.088 15.2377 166.543 15.072 167.04 14.9631C167.542 14.8494 168.046 14.7595 168.553 14.6932C169.215 14.608 169.753 14.544 170.165 14.5014C170.581 14.4541 170.884 14.3759 171.074 14.267C171.268 14.1581 171.365 13.9687 171.365 13.6989V13.642C171.365 12.9413 171.173 12.3968 170.79 12.0085C170.411 11.6203 169.836 11.4261 169.064 11.4261C168.264 11.4261 167.636 11.6013 167.182 11.9517C166.727 12.3021 166.408 12.6761 166.223 13.0739L164.632 12.5057C164.916 11.8428 165.295 11.3267 165.768 10.9574C166.247 10.5833 166.768 10.3229 167.331 10.1761C167.899 10.0246 168.458 9.94886 169.007 9.94886C169.357 9.94886 169.76 9.99148 170.214 10.0767C170.674 10.1572 171.116 10.3253 171.543 10.581C171.973 10.8366 172.331 11.2225 172.615 11.7386C172.899 12.2547 173.041 12.946 173.041 13.8125V21H171.365V19.5227H171.28C171.166 19.7595 170.977 20.0128 170.712 20.2827C170.446 20.5526 170.094 20.7822 169.653 20.9716C169.213 21.161 168.676 21.2557 168.041 21.2557ZM168.297 19.75C168.96 19.75 169.518 19.6198 169.973 19.3594C170.432 19.099 170.778 18.7628 171.01 18.3509C171.247 17.9389 171.365 17.5057 171.365 17.0511V15.517C171.294 15.6023 171.138 15.6804 170.896 15.7514C170.66 15.8177 170.385 15.8769 170.072 15.929C169.765 15.9763 169.464 16.0189 169.17 16.0568C168.882 16.09 168.647 16.1184 168.467 16.142C168.032 16.1989 167.625 16.2912 167.246 16.419C166.872 16.5421 166.569 16.7292 166.337 16.9801C166.109 17.2263 165.996 17.5625 165.996 17.9886C165.996 18.571 166.211 19.0114 166.642 19.3097C167.078 19.6032 167.629 19.75 168.297 19.75ZM176.328 21V6.45455H178.004V11.8239H178.146C178.269 11.6345 178.44 11.393 178.657 11.0994C178.88 10.8011 179.197 10.536 179.609 10.304C180.026 10.0672 180.589 9.94886 181.299 9.94886C182.218 9.94886 183.028 10.1785 183.728 10.6378C184.429 11.0971 184.976 11.7481 185.369 12.5909C185.762 13.4337 185.958 14.428 185.958 15.5739C185.958 16.7292 185.762 17.7306 185.369 18.5781C184.976 19.4209 184.431 20.0743 183.735 20.5384C183.039 20.9976 182.237 21.2273 181.328 21.2273C180.627 21.2273 180.066 21.1113 179.645 20.8793C179.223 20.6425 178.899 20.375 178.672 20.0767C178.444 19.7737 178.269 19.5227 178.146 19.3239H177.947V21H176.328ZM177.975 15.5455C177.975 16.3693 178.096 17.0961 178.338 17.7259C178.579 18.3509 178.932 18.8409 179.396 19.196C179.86 19.5464 180.428 19.7216 181.1 19.7216C181.801 19.7216 182.386 19.5369 182.855 19.1676C183.328 18.7936 183.683 18.2917 183.92 17.6619C184.162 17.0275 184.282 16.322 184.282 15.5455C184.282 14.7784 184.164 14.0871 183.927 13.4716C183.695 12.8513 183.342 12.3613 182.869 12.0014C182.4 11.6368 181.811 11.4545 181.1 11.4545C180.419 11.4545 179.846 11.6274 179.382 11.973C178.918 12.3139 178.567 12.7921 178.331 13.4077C178.094 14.0185 177.975 14.7311 177.975 15.5455ZM189.744 21.1136C189.394 21.1136 189.093 20.9882 188.842 20.7372C188.591 20.4863 188.466 20.1856 188.466 19.8352C188.466 19.4848 188.591 19.1842 188.842 18.9332C189.093 18.6823 189.394 18.5568 189.744 18.5568C190.094 18.5568 190.395 18.6823 190.646 18.9332C190.897 19.1842 191.022 19.4848 191.022 19.8352C191.022 20.0672 190.963 20.2803 190.845 20.4744C190.731 20.6686 190.577 20.8248 190.383 20.9432C190.194 21.0568 189.981 21.1136 189.744 21.1136ZM198.462 21.2273C197.439 21.2273 196.559 20.9858 195.82 20.5028C195.081 20.0199 194.513 19.3546 194.115 18.5071C193.718 17.6596 193.519 16.6913 193.519 15.6023C193.519 14.4943 193.722 13.5166 194.13 12.669C194.542 11.8168 195.114 11.1515 195.848 10.6733C196.587 10.1903 197.449 9.94886 198.434 9.94886C199.201 9.94886 199.892 10.0909 200.507 10.375C201.123 10.6591 201.627 11.0568 202.02 11.5682C202.413 12.0795 202.657 12.6761 202.752 13.358H201.076C200.948 12.8608 200.664 12.4205 200.223 12.0369C199.788 11.6487 199.201 11.4545 198.462 11.4545C197.809 11.4545 197.236 11.625 196.743 11.9659C196.256 12.3021 195.874 12.7779 195.6 13.3935C195.33 14.0043 195.195 14.7216 195.195 15.5455C195.195 16.3883 195.328 17.1222 195.593 17.7472C195.863 18.3722 196.241 18.8575 196.729 19.2031C197.221 19.5488 197.799 19.7216 198.462 19.7216C198.898 19.7216 199.293 19.6458 199.648 19.4943C200.003 19.3428 200.304 19.125 200.55 18.8409C200.796 18.5568 200.971 18.2159 201.076 17.8182H202.752C202.657 18.4621 202.423 19.0421 202.049 19.5582C201.679 20.0696 201.189 20.4768 200.578 20.7798C199.972 21.0781 199.267 21.2273 198.462 21.2273ZM209.634 21.2273C208.649 21.2273 207.785 20.9929 207.042 20.5241C206.303 20.0554 205.725 19.3996 205.309 18.5568C204.897 17.714 204.691 16.7292 204.691 15.6023C204.691 14.4659 204.897 13.474 205.309 12.6264C205.725 11.7789 206.303 11.1207 207.042 10.652C207.785 10.1832 208.649 9.94886 209.634 9.94886C210.619 9.94886 211.48 10.1832 212.219 10.652C212.962 11.1207 213.54 11.7789 213.952 12.6264C214.369 13.474 214.577 14.4659 214.577 15.6023C214.577 16.7292 214.369 17.714 213.952 18.5568C213.54 19.3996 212.962 20.0554 212.219 20.5241C211.48 20.9929 210.619 21.2273 209.634 21.2273ZM209.634 19.7216C210.382 19.7216 210.998 19.5298 211.48 19.1463C211.963 18.7628 212.321 18.2585 212.553 17.6335C212.785 17.0085 212.901 16.3314 212.901 15.6023C212.901 14.8731 212.785 14.1937 212.553 13.5639C212.321 12.9342 211.963 12.4252 211.48 12.0369C210.998 11.6487 210.382 11.4545 209.634 11.4545C208.886 11.4545 208.27 11.6487 207.787 12.0369C207.304 12.4252 206.947 12.9342 206.715 13.5639C206.483 14.1937 206.367 14.8731 206.367 15.6023C206.367 16.3314 206.483 17.0085 206.715 17.6335C206.947 18.2585 207.304 18.7628 207.787 19.1463C208.27 19.5298 208.886 19.7216 209.634 19.7216ZM217.136 21V10.0909H218.755V11.7955H218.897C219.124 11.2131 219.491 10.7609 219.998 10.4389C220.504 10.1122 221.113 9.94886 221.823 9.94886C222.543 9.94886 223.142 10.1122 223.62 10.4389C224.103 10.7609 224.479 11.2131 224.749 11.7955H224.863C225.142 11.232 225.561 10.7846 226.12 10.4531C226.679 10.117 227.349 9.94886 228.13 9.94886C229.105 9.94886 229.903 10.2543 230.523 10.8651C231.144 11.4711 231.454 12.4157 231.454 13.6989V21H229.778V13.6989C229.778 12.8939 229.558 12.3187 229.117 11.973C228.677 11.6274 228.158 11.4545 227.562 11.4545C226.795 11.4545 226.201 11.6866 225.779 12.1506C225.358 12.6098 225.147 13.1922 225.147 13.8977V21H223.442V13.5284C223.442 12.9081 223.241 12.4086 222.839 12.0298C222.436 11.6463 221.918 11.4545 221.283 11.4545C220.848 11.4545 220.441 11.5705 220.062 11.8026C219.688 12.0346 219.385 12.3565 219.153 12.7685C218.925 13.1757 218.812 13.6468 218.812 14.1818V21H217.136Z" fill="white"/>
<path d="M55.9115 38V33.0909H56.6658V38H55.9115ZM56.2951 32.2727C56.148 32.2727 56.0213 32.2227 55.9147 32.1225C55.8103 32.0224 55.7581 31.902 55.7581 31.7614C55.7581 31.6207 55.8103 31.5004 55.9147 31.4002C56.0213 31.3001 56.148 31.25 56.2951 31.25C56.4421 31.25 56.5678 31.3001 56.6722 31.4002C56.7787 31.5004 56.832 31.6207 56.832 31.7614C56.832 31.902 56.7787 32.0224 56.6722 32.1225C56.5678 32.2227 56.4421 32.2727 56.2951 32.2727ZM61.5245 34.1903L60.847 34.3821C60.8044 34.2692 60.7415 34.1594 60.6584 34.0529C60.5775 33.9442 60.4667 33.8548 60.326 33.7844C60.1854 33.7141 60.0054 33.679 59.7859 33.679C59.4855 33.679 59.2351 33.7482 59.0348 33.8867C58.8367 34.0231 58.7376 34.1967 58.7376 34.4077C58.7376 34.5952 58.8058 34.7433 58.9422 34.8519C59.0785 34.9606 59.2916 35.0511 59.5814 35.1236L60.3101 35.3026C60.749 35.4091 61.076 35.5721 61.2912 35.7915C61.5064 36.0089 61.614 36.2891 61.614 36.6321C61.614 36.9134 61.5331 37.1648 61.3711 37.3864C61.2113 37.608 60.9876 37.7827 60.7 37.9105C60.4123 38.0384 60.0778 38.1023 59.6964 38.1023C59.1957 38.1023 58.7813 37.9936 58.4532 37.7763C58.125 37.5589 57.9173 37.2415 57.8299 36.8239L58.5459 36.6449C58.614 36.9091 58.7429 37.1072 58.9326 37.2393C59.1243 37.3714 59.3747 37.4375 59.6836 37.4375C60.0352 37.4375 60.3143 37.3629 60.521 37.2138C60.7298 37.0625 60.8342 36.8814 60.8342 36.6705C60.8342 36.5 60.7745 36.3572 60.6552 36.2422C60.5359 36.125 60.3527 36.0376 60.1055 35.9801L59.2873 35.7884C58.8378 35.6818 58.5075 35.5167 58.2966 35.293C58.0878 35.0671 57.9834 34.7848 57.9834 34.446C57.9834 34.169 58.0611 33.924 58.2167 33.7109C58.3743 33.4979 58.5885 33.3306 58.8591 33.2092C59.1318 33.0877 59.4407 33.027 59.7859 33.027C60.2717 33.027 60.6531 33.1335 60.9301 33.3466C61.2092 33.5597 61.4074 33.8409 61.5245 34.1903ZM66.7253 38.1151C66.4142 38.1151 66.1319 38.0565 65.8783 37.9393C65.6248 37.82 65.4234 37.6484 65.2743 37.4247C65.1251 37.1989 65.0506 36.9261 65.0506 36.6065C65.0506 36.3253 65.106 36.0973 65.2168 35.9226C65.3275 35.7457 65.4756 35.6072 65.661 35.5071C65.8464 35.407 66.0509 35.3324 66.2746 35.2834C66.5005 35.2322 66.7274 35.1918 66.9554 35.1619C67.2537 35.1236 67.4955 35.0948 67.6809 35.0756C67.8684 35.0543 68.0047 35.0192 68.09 34.9702C68.1773 34.9212 68.221 34.8359 68.221 34.7145V34.6889C68.221 34.3736 68.1347 34.1286 67.9621 33.9538C67.7917 33.7791 67.5328 33.6918 67.1855 33.6918C66.8254 33.6918 66.5431 33.7706 66.3386 33.9283C66.134 34.0859 65.9902 34.2543 65.9071 34.4332L65.1912 34.1776C65.319 33.8793 65.4895 33.647 65.7025 33.4808C65.9177 33.3125 66.1521 33.1953 66.4057 33.1293C66.6614 33.0611 66.9128 33.027 67.1599 33.027C67.3176 33.027 67.4987 33.0462 67.7033 33.0845C67.9099 33.1207 68.1092 33.1964 68.3009 33.3114C68.4948 33.4265 68.6557 33.6001 68.7835 33.8324C68.9114 34.0646 68.9753 34.3757 68.9753 34.7656V38H68.221V37.3352H68.1827C68.1315 37.4418 68.0463 37.5558 67.927 37.6772C67.8077 37.7987 67.6489 37.902 67.4508 37.9872C67.2526 38.0724 67.0108 38.1151 66.7253 38.1151ZM66.8403 37.4375C67.1386 37.4375 67.39 37.3789 67.5946 37.2617C67.8013 37.1445 67.9568 36.9933 68.0612 36.8079C68.1677 36.6225 68.221 36.4276 68.221 36.223V35.5327C68.1891 35.571 68.1187 35.6062 68.0101 35.6381C67.9035 35.668 67.78 35.6946 67.6393 35.718C67.5008 35.7393 67.3655 35.7585 67.2334 35.7756C67.1035 35.7905 66.998 35.8033 66.917 35.8139C66.721 35.8395 66.5378 35.881 66.3673 35.9386C66.199 35.994 66.0626 36.0781 65.9582 36.1911C65.856 36.3018 65.8048 36.4531 65.8048 36.6449C65.8048 36.907 65.9018 37.1051 66.0957 37.2393C66.2917 37.3714 66.5399 37.4375 66.8403 37.4375ZM76.3605 34.1903L75.6829 34.3821C75.6403 34.2692 75.5775 34.1594 75.4944 34.0529C75.4134 33.9442 75.3026 33.8548 75.162 33.7844C75.0214 33.7141 74.8413 33.679 74.6218 33.679C74.3214 33.679 74.0711 33.7482 73.8708 33.8867C73.6726 34.0231 73.5736 34.1967 73.5736 34.4077C73.5736 34.5952 73.6417 34.7433 73.7781 34.8519C73.9145 34.9606 74.1275 35.0511 74.4173 35.1236L75.146 35.3026C75.5849 35.4091 75.912 35.5721 76.1272 35.7915C76.3424 36.0089 76.45 36.2891 76.45 36.6321C76.45 36.9134 76.369 37.1648 76.2071 37.3864C76.0473 37.608 75.8236 37.7827 75.5359 37.9105C75.2483 38.0384 74.9138 38.1023 74.5324 38.1023C74.0316 38.1023 73.6172 37.9936 73.2891 37.7763C72.961 37.5589 72.7532 37.2415 72.6659 36.8239L73.3818 36.6449C73.45 36.9091 73.5789 37.1072 73.7685 37.2393C73.9603 37.3714 74.2106 37.4375 74.5196 37.4375C74.8711 37.4375 75.1503 37.3629 75.3569 37.2138C75.5657 37.0625 75.6701 36.8814 75.6701 36.6705C75.6701 36.5 75.6105 36.3572 75.4912 36.2422C75.3718 36.125 75.1886 36.0376 74.9415 35.9801L74.1233 35.7884C73.6737 35.6818 73.3434 35.5167 73.1325 35.293C72.9237 35.0671 72.8193 34.7848 72.8193 34.446C72.8193 34.169 72.8971 33.924 73.0526 33.7109C73.2103 33.4979 73.4244 33.3306 73.695 33.2092C73.9677 33.0877 74.2767 33.027 74.6218 33.027C75.1076 33.027 75.489 33.1335 75.766 33.3466C76.0451 33.5597 76.2433 33.8409 76.3605 34.1903ZM80.6791 35.9929V33.0909H81.4334V38H80.6791V37.169H80.628C80.5129 37.4183 80.3339 37.6303 80.091 37.805C79.8481 37.9776 79.5413 38.0639 79.1706 38.0639C78.8638 38.0639 78.591 37.9968 78.3524 37.8626C78.1138 37.7262 77.9263 37.5217 77.7899 37.2489C77.6535 36.9741 77.5854 36.6278 77.5854 36.2102V33.0909H78.3396V36.1591C78.3396 36.517 78.4398 36.8026 78.64 37.0156C78.8425 37.2287 79.1003 37.3352 79.4135 37.3352C79.601 37.3352 79.7917 37.2873 79.9856 37.1914C80.1816 37.0955 80.3457 36.9485 80.4778 36.7504C80.612 36.5522 80.6791 36.2997 80.6791 35.9929ZM82.8149 39.8409V33.0909H83.5435V33.8707H83.633C83.6884 33.7855 83.7651 33.6768 83.8631 33.5447C83.9633 33.4105 84.106 33.2912 84.2914 33.1868C84.4789 33.0803 84.7325 33.027 85.0521 33.027C85.4654 33.027 85.8298 33.1303 86.1451 33.337C86.4604 33.5437 86.7065 33.8366 86.8834 34.2159C87.0602 34.5952 87.1487 35.0426 87.1487 35.5582C87.1487 36.0781 87.0602 36.5288 86.8834 36.9102C86.7065 37.2894 86.4615 37.5835 86.1483 37.7923C85.8351 37.9989 85.4739 38.1023 85.0649 38.1023C84.7495 38.1023 84.497 38.0501 84.3074 37.9457C84.1178 37.8391 83.9718 37.7187 83.8695 37.5845C83.7673 37.4482 83.6884 37.3352 83.633 37.2457H83.5691V39.8409H82.8149ZM83.5563 35.5455C83.5563 35.9162 83.6107 36.2433 83.7193 36.5266C83.828 36.8079 83.9867 37.0284 84.1955 37.1882C84.4043 37.3459 84.66 37.4247 84.9626 37.4247C85.2779 37.4247 85.5411 37.3416 85.752 37.1754C85.9651 37.0071 86.1249 36.7812 86.2314 36.4979C86.3401 36.2124 86.3944 35.8949 86.3944 35.5455C86.3944 35.2003 86.3411 34.8892 86.2346 34.6122C86.1302 34.3331 85.9715 34.1126 85.7584 33.9506C85.5475 33.7866 85.2822 33.7045 84.9626 33.7045C84.6558 33.7045 84.3979 33.7823 84.1891 33.9379C83.9803 34.0913 83.8227 34.3065 83.7161 34.5835C83.6096 34.8583 83.5563 35.179 83.5563 35.5455ZM88.2992 39.8409V33.0909H89.0279V33.8707H89.1174C89.1728 33.7855 89.2495 33.6768 89.3475 33.5447C89.4477 33.4105 89.5904 33.2912 89.7758 33.1868C89.9633 33.0803 90.2168 33.027 90.5364 33.027C90.9498 33.027 91.3141 33.1303 91.6295 33.337C91.9448 33.5437 92.1909 33.8366 92.3678 34.2159C92.5446 34.5952 92.633 35.0426 92.633 35.5582C92.633 36.0781 92.5446 36.5288 92.3678 36.9102C92.1909 37.2894 91.9459 37.5835 91.6327 37.7923C91.3195 37.9989 90.9583 38.1023 90.5492 38.1023C90.2339 38.1023 89.9814 38.0501 89.7918 37.9457C89.6021 37.8391 89.4562 37.7187 89.3539 37.5845C89.2516 37.4482 89.1728 37.3352 89.1174 37.2457H89.0535V39.8409H88.2992ZM89.0407 35.5455C89.0407 35.9162 89.095 36.2433 89.2037 36.5266C89.3124 36.8079 89.4711 37.0284 89.6799 37.1882C89.8887 37.3459 90.1444 37.4247 90.447 37.4247C90.7623 37.4247 91.0254 37.3416 91.2364 37.1754C91.4494 37.0071 91.6092 36.7812 91.7158 36.4979C91.8244 36.2124 91.8788 35.8949 91.8788 35.5455C91.8788 35.2003 91.8255 34.8892 91.719 34.6122C91.6146 34.3331 91.4558 34.1126 91.2428 33.9506C91.0318 33.7866 90.7666 33.7045 90.447 33.7045C90.1401 33.7045 89.8823 33.7823 89.6735 33.9379C89.4647 34.0913 89.307 34.3065 89.2005 34.5835C89.094 34.8583 89.0407 35.179 89.0407 35.5455ZM95.7779 38.1023C95.3347 38.1023 94.9459 37.9968 94.6114 37.7859C94.279 37.5749 94.019 37.2798 93.8315 36.9006C93.6462 36.5213 93.5535 36.0781 93.5535 35.571C93.5535 35.0597 93.6462 34.6133 93.8315 34.2319C94.019 33.8505 94.279 33.5543 94.6114 33.3434C94.9459 33.1325 95.3347 33.027 95.7779 33.027C96.2211 33.027 96.6089 33.1325 96.9413 33.3434C97.2758 33.5543 97.5357 33.8505 97.7211 34.2319C97.9086 34.6133 98.0024 35.0597 98.0024 35.571C98.0024 36.0781 97.9086 36.5213 97.7211 36.9006C97.5357 37.2798 97.2758 37.5749 96.9413 37.7859C96.6089 37.9968 96.2211 38.1023 95.7779 38.1023ZM95.7779 37.4247C96.1146 37.4247 96.3916 37.3384 96.6089 37.1658C96.8262 36.9933 96.9871 36.7663 97.0915 36.4851C97.1959 36.2038 97.2481 35.8991 97.2481 35.571C97.2481 35.2429 97.1959 34.9371 97.0915 34.6538C96.9871 34.3704 96.8262 34.1413 96.6089 33.9666C96.3916 33.7919 96.1146 33.7045 95.7779 33.7045C95.4413 33.7045 95.1643 33.7919 94.947 33.9666C94.7296 34.1413 94.5688 34.3704 94.4644 34.6538C94.36 34.9371 94.3078 35.2429 94.3078 35.571C94.3078 35.8991 94.36 36.2038 94.4644 36.4851C94.5688 36.7663 94.7296 36.9933 94.947 37.1658C95.1643 37.3384 95.4413 37.4247 95.7779 37.4247ZM99.1537 38V33.0909H99.8824V33.8324H99.9335C100.023 33.5895 100.185 33.3924 100.419 33.2411C100.654 33.0898 100.918 33.0142 101.212 33.0142C101.267 33.0142 101.337 33.0153 101.42 33.0174C101.503 33.0195 101.566 33.0227 101.608 33.027V33.794C101.583 33.7876 101.524 33.7781 101.432 33.7653C101.343 33.7504 101.248 33.7429 101.148 33.7429C100.909 33.7429 100.696 33.793 100.509 33.8931C100.323 33.9911 100.176 34.1275 100.068 34.3022C99.9612 34.4748 99.908 34.6719 99.908 34.8935V38H99.1537ZM104.945 33.0909V33.7301H102.401V33.0909H104.945ZM103.142 31.9148H103.897V36.5938C103.897 36.8068 103.928 36.9666 103.989 37.0732C104.053 37.1776 104.134 37.2479 104.232 37.2841C104.332 37.3182 104.438 37.3352 104.549 37.3352C104.632 37.3352 104.7 37.331 104.753 37.3224C104.806 37.3118 104.849 37.3033 104.881 37.2969L105.034 37.9744C104.983 37.9936 104.912 38.0128 104.82 38.032C104.729 38.0533 104.613 38.0639 104.472 38.0639C104.259 38.0639 104.05 38.0181 103.845 37.9265C103.643 37.8349 103.475 37.6953 103.341 37.5078C103.208 37.3203 103.142 37.0838 103.142 36.7983V31.9148ZM110.797 33.0909V33.7301H108.151V33.0909H110.797ZM108.943 38V32.4134C108.943 32.1321 109.009 31.8977 109.141 31.7102C109.273 31.5227 109.445 31.3821 109.656 31.2884C109.867 31.1946 110.089 31.1477 110.324 31.1477C110.509 31.1477 110.66 31.1626 110.778 31.1925C110.895 31.2223 110.982 31.25 111.04 31.2756L110.822 31.9276C110.784 31.9148 110.731 31.8988 110.663 31.8796C110.597 31.8604 110.509 31.8509 110.401 31.8509C110.151 31.8509 109.971 31.9137 109.86 32.0394C109.752 32.1651 109.697 32.3494 109.697 32.5923V38H108.943ZM113.646 38.1023C113.203 38.1023 112.814 37.9968 112.48 37.7859C112.147 37.5749 111.887 37.2798 111.7 36.9006C111.514 36.5213 111.422 36.0781 111.422 35.571C111.422 35.0597 111.514 34.6133 111.7 34.2319C111.887 33.8505 112.147 33.5543 112.48 33.3434C112.814 33.1325 113.203 33.027 113.646 33.027C114.089 33.027 114.477 33.1325 114.809 33.3434C115.144 33.5543 115.404 33.8505 115.589 34.2319C115.777 34.6133 115.871 35.0597 115.871 35.571C115.871 36.0781 115.777 36.5213 115.589 36.9006C115.404 37.2798 115.144 37.5749 114.809 37.7859C114.477 37.9968 114.089 38.1023 113.646 38.1023ZM113.646 37.4247C113.983 37.4247 114.26 37.3384 114.477 37.1658C114.694 36.9933 114.855 36.7663 114.96 36.4851C115.064 36.2038 115.116 35.8991 115.116 35.571C115.116 35.2429 115.064 34.9371 114.96 34.6538C114.855 34.3704 114.694 34.1413 114.477 33.9666C114.26 33.7919 113.983 33.7045 113.646 33.7045C113.309 33.7045 113.032 33.7919 112.815 33.9666C112.598 34.1413 112.437 34.3704 112.333 34.6538C112.228 34.9371 112.176 35.2429 112.176 35.571C112.176 35.8991 112.228 36.2038 112.333 36.4851C112.437 36.7663 112.598 36.9933 112.815 37.1658C113.032 37.3384 113.309 37.4247 113.646 37.4247ZM117.022 38V33.0909H117.751V33.8324H117.802C117.891 33.5895 118.053 33.3924 118.288 33.2411C118.522 33.0898 118.786 33.0142 119.08 33.0142C119.136 33.0142 119.205 33.0153 119.288 33.0174C119.371 33.0195 119.434 33.0227 119.476 33.027V33.794C119.451 33.7876 119.392 33.7781 119.301 33.7653C119.211 33.7504 119.116 33.7429 119.016 33.7429C118.778 33.7429 118.564 33.793 118.377 33.8931C118.192 33.9911 118.045 34.1275 117.936 34.3022C117.829 34.4748 117.776 34.6719 117.776 34.8935V38H117.022ZM123.464 35.9929V33.0909H124.219V38H123.464V37.169H123.413C123.298 37.4183 123.119 37.6303 122.876 37.805C122.633 37.9776 122.326 38.0639 121.956 38.0639C121.649 38.0639 121.376 37.9968 121.138 37.8626C120.899 37.7262 120.711 37.5217 120.575 37.2489C120.439 36.9741 120.371 36.6278 120.371 36.2102V33.0909H121.125V36.1591C121.125 36.517 121.225 36.8026 121.425 37.0156C121.628 37.2287 121.885 37.3352 122.199 37.3352C122.386 37.3352 122.577 37.2873 122.771 37.1914C122.967 37.0955 123.131 36.9485 123.263 36.7504C123.397 36.5522 123.464 36.2997 123.464 35.9929ZM125.6 38V33.0909H126.329V33.858H126.393C126.495 33.5959 126.66 33.3924 126.888 33.2475C127.116 33.1005 127.39 33.027 127.709 33.027C128.033 33.027 128.303 33.1005 128.518 33.2475C128.735 33.3924 128.905 33.5959 129.026 33.858H129.077C129.203 33.6044 129.392 33.4031 129.643 33.2539C129.894 33.1026 130.196 33.027 130.547 33.027C130.986 33.027 131.345 33.1644 131.625 33.4393C131.904 33.712 132.043 34.1371 132.043 34.7145V38H131.289V34.7145C131.289 34.3523 131.19 34.0934 130.992 33.9379C130.794 33.7823 130.56 33.7045 130.292 33.7045C129.947 33.7045 129.679 33.8089 129.49 34.0178C129.3 34.2244 129.205 34.4865 129.205 34.804V38H128.438V34.6378C128.438 34.3587 128.348 34.1339 128.166 33.9634C127.985 33.7908 127.752 33.7045 127.466 33.7045C127.27 33.7045 127.087 33.7567 126.917 33.8612C126.748 33.9656 126.612 34.1104 126.508 34.2958C126.405 34.479 126.354 34.6911 126.354 34.9318V38H125.6ZM138.14 33.0909V33.7301H135.493V33.0909H138.14ZM136.286 38V32.4134C136.286 32.1321 136.352 31.8977 136.484 31.7102C136.616 31.5227 136.788 31.3821 136.999 31.2884C137.21 31.1946 137.432 31.1477 137.667 31.1477C137.852 31.1477 138.003 31.1626 138.12 31.1925C138.238 31.2223 138.325 31.25 138.383 31.2756L138.165 31.9276C138.127 31.9148 138.074 31.8988 138.005 31.8796C137.939 31.8604 137.852 31.8509 137.743 31.8509C137.494 31.8509 137.314 31.9137 137.203 32.0394C137.095 32.1651 137.04 32.3494 137.04 32.5923V38H136.286ZM140.989 38.1023C140.546 38.1023 140.157 37.9968 139.822 37.7859C139.49 37.5749 139.23 37.2798 139.042 36.9006C138.857 36.5213 138.764 36.0781 138.764 35.571C138.764 35.0597 138.857 34.6133 139.042 34.2319C139.23 33.8505 139.49 33.5543 139.822 33.3434C140.157 33.1325 140.546 33.027 140.989 33.027C141.432 33.027 141.82 33.1325 142.152 33.3434C142.487 33.5543 142.747 33.8505 142.932 34.2319C143.12 34.6133 143.213 35.0597 143.213 35.571C143.213 36.0781 143.12 36.5213 142.932 36.9006C142.747 37.2798 142.487 37.5749 142.152 37.7859C141.82 37.9968 141.432 38.1023 140.989 38.1023ZM140.989 37.4247C141.326 37.4247 141.602 37.3384 141.82 37.1658C142.037 36.9933 142.198 36.7663 142.302 36.4851C142.407 36.2038 142.459 35.8991 142.459 35.571C142.459 35.2429 142.407 34.9371 142.302 34.6538C142.198 34.3704 142.037 34.1413 141.82 33.9666C141.602 33.7919 141.326 33.7045 140.989 33.7045C140.652 33.7045 140.375 33.7919 140.158 33.9666C139.941 34.1413 139.78 34.3704 139.675 34.6538C139.571 34.9371 139.519 35.2429 139.519 35.571C139.519 35.8991 139.571 36.2038 139.675 36.4851C139.78 36.7663 139.941 36.9933 140.158 37.1658C140.375 37.3384 140.652 37.4247 140.989 37.4247ZM144.365 38V33.0909H145.093V33.8324H145.144C145.234 33.5895 145.396 33.3924 145.63 33.2411C145.865 33.0898 146.129 33.0142 146.423 33.0142C146.478 33.0142 146.548 33.0153 146.631 33.0174C146.714 33.0195 146.777 33.0227 146.819 33.027V33.794C146.794 33.7876 146.735 33.7781 146.643 33.7653C146.554 33.7504 146.459 33.7429 146.359 33.7429C146.12 33.7429 145.907 33.793 145.72 33.8931C145.534 33.9911 145.387 34.1275 145.279 34.3022C145.172 34.4748 145.119 34.6719 145.119 34.8935V38H144.365ZM151.689 38.1151C151.378 38.1151 151.096 38.0565 150.842 37.9393C150.589 37.82 150.387 37.6484 150.238 37.4247C150.089 37.1989 150.014 36.9261 150.014 36.6065C150.014 36.3253 150.07 36.0973 150.181 35.9226C150.291 35.7457 150.439 35.6072 150.625 35.5071C150.81 35.407 151.015 35.3324 151.239 35.2834C151.464 35.2322 151.691 35.1918 151.919 35.1619C152.218 35.1236 152.459 35.0948 152.645 35.0756C152.832 35.0543 152.969 35.0192 153.054 34.9702C153.141 34.9212 153.185 34.8359 153.185 34.7145V34.6889C153.185 34.3736 153.099 34.1286 152.926 33.9538C152.756 33.7791 152.497 33.6918 152.149 33.6918C151.789 33.6918 151.507 33.7706 151.302 33.9283C151.098 34.0859 150.954 34.2543 150.871 34.4332L150.155 34.1776C150.283 33.8793 150.453 33.647 150.666 33.4808C150.882 33.3125 151.116 33.1953 151.37 33.1293C151.625 33.0611 151.877 33.027 152.124 33.027C152.281 33.027 152.463 33.0462 152.667 33.0845C152.874 33.1207 153.073 33.1964 153.265 33.3114C153.459 33.4265 153.62 33.6001 153.747 33.8324C153.875 34.0646 153.939 34.3757 153.939 34.7656V38H153.185V37.3352H153.147C153.095 37.4418 153.01 37.5558 152.891 37.6772C152.772 37.7987 152.613 37.902 152.415 37.9872C152.216 38.0724 151.975 38.1151 151.689 38.1151ZM151.804 37.4375C152.102 37.4375 152.354 37.3789 152.558 37.2617C152.765 37.1445 152.921 36.9933 153.025 36.8079C153.132 36.6225 153.185 36.4276 153.185 36.223V35.5327C153.153 35.571 153.083 35.6062 152.974 35.6381C152.867 35.668 152.744 35.6946 152.603 35.718C152.465 35.7393 152.329 35.7585 152.197 35.7756C152.067 35.7905 151.962 35.8033 151.881 35.8139C151.685 35.8395 151.502 35.881 151.331 35.9386C151.163 35.994 151.027 36.0781 150.922 36.1911C150.82 36.3018 150.769 36.4531 150.769 36.6449C150.769 36.907 150.866 37.1051 151.06 37.2393C151.256 37.3714 151.504 37.4375 151.804 37.4375ZM157.17 38.1023C156.76 38.1023 156.399 37.9989 156.086 37.7923C155.773 37.5835 155.528 37.2894 155.351 36.9102C155.174 36.5288 155.086 36.0781 155.086 35.5582C155.086 35.0426 155.174 34.5952 155.351 34.2159C155.528 33.8366 155.774 33.5437 156.089 33.337C156.405 33.1303 156.769 33.027 157.182 33.027C157.502 33.027 157.754 33.0803 157.94 33.1868C158.127 33.2912 158.27 33.4105 158.368 33.5447C158.468 33.6768 158.546 33.7855 158.601 33.8707H158.665V31.4545H159.42V38H158.691V37.2457H158.601C158.546 37.3352 158.467 37.4482 158.365 37.5845C158.263 37.7187 158.117 37.8391 157.927 37.9457C157.737 38.0501 157.485 38.1023 157.17 38.1023ZM157.272 37.4247C157.574 37.4247 157.83 37.3459 158.039 37.1882C158.248 37.0284 158.406 36.8079 158.515 36.5266C158.624 36.2433 158.678 35.9162 158.678 35.5455C158.678 35.179 158.625 34.8583 158.518 34.5835C158.412 34.3065 158.254 34.0913 158.045 33.9379C157.836 33.7823 157.579 33.7045 157.272 33.7045C156.952 33.7045 156.686 33.7866 156.473 33.9506C156.262 34.1126 156.103 34.3331 155.997 34.6122C155.892 34.8892 155.84 35.2003 155.84 35.5455C155.84 35.8949 155.893 36.2124 156 36.4979C156.108 36.7812 156.268 37.0071 156.479 37.1754C156.692 37.3416 156.956 37.4247 157.272 37.4247ZM162.759 38.1023C162.35 38.1023 161.989 37.9989 161.676 37.7923C161.363 37.5835 161.118 37.2894 160.941 36.9102C160.764 36.5288 160.676 36.0781 160.676 35.5582C160.676 35.0426 160.764 34.5952 160.941 34.2159C161.118 33.8366 161.364 33.5437 161.679 33.337C161.994 33.1303 162.359 33.027 162.772 33.027C163.092 33.027 163.344 33.0803 163.53 33.1868C163.717 33.2912 163.86 33.4105 163.958 33.5447C164.058 33.6768 164.136 33.7855 164.191 33.8707H164.255V31.4545H165.009V38H164.281V37.2457H164.191C164.136 37.3352 164.057 37.4482 163.955 37.5845C163.852 37.7187 163.706 37.8391 163.517 37.9457C163.327 38.0501 163.075 38.1023 162.759 38.1023ZM162.862 37.4247C163.164 37.4247 163.42 37.3459 163.629 37.1882C163.837 37.0284 163.996 36.8079 164.105 36.5266C164.214 36.2433 164.268 35.9162 164.268 35.5455C164.268 35.179 164.215 34.8583 164.108 34.5835C164.002 34.3065 163.844 34.0913 163.635 33.9379C163.426 33.7823 163.168 33.7045 162.862 33.7045C162.542 33.7045 162.276 33.7866 162.063 33.9506C161.852 34.1126 161.693 34.3331 161.586 34.6122C161.482 34.8892 161.43 35.2003 161.43 35.5455C161.43 35.8949 161.483 36.2124 161.59 36.4979C161.698 36.7812 161.858 37.0071 162.069 37.1754C162.282 37.3416 162.546 37.4247 162.862 37.4247ZM166.496 38V33.0909H167.25V38H166.496ZM166.879 32.2727C166.732 32.2727 166.605 32.2227 166.499 32.1225C166.394 32.0224 166.342 31.902 166.342 31.7614C166.342 31.6207 166.394 31.5004 166.499 31.4002C166.605 31.3001 166.732 31.25 166.879 31.25C167.026 31.25 167.152 31.3001 167.256 31.4002C167.363 31.5004 167.416 31.6207 167.416 31.7614C167.416 31.902 167.363 32.0224 167.256 32.1225C167.152 32.2227 167.026 32.2727 166.879 32.2727ZM170.626 38.1023C170.165 38.1023 169.769 37.9936 169.437 37.7763C169.104 37.5589 168.849 37.2596 168.67 36.8782C168.491 36.4968 168.401 36.0611 168.401 35.571C168.401 35.0724 168.493 34.6325 168.676 34.2511C168.861 33.8675 169.119 33.5682 169.449 33.353C169.782 33.1357 170.17 33.027 170.613 33.027C170.958 33.027 171.269 33.0909 171.546 33.2188C171.823 33.3466 172.05 33.5256 172.227 33.7557C172.404 33.9858 172.513 34.2543 172.556 34.5611H171.802C171.744 34.3374 171.616 34.1392 171.418 33.9666C171.222 33.7919 170.958 33.7045 170.626 33.7045C170.332 33.7045 170.074 33.7812 169.852 33.9347C169.633 34.0859 169.461 34.3001 169.338 34.5771C169.216 34.8519 169.155 35.1747 169.155 35.5455C169.155 35.9247 169.215 36.255 169.334 36.5362C169.456 36.8175 169.626 37.0359 169.846 37.1914C170.067 37.3469 170.327 37.4247 170.626 37.4247C170.822 37.4247 171 37.3906 171.159 37.3224C171.319 37.2543 171.454 37.1562 171.565 37.0284C171.676 36.9006 171.755 36.7472 171.802 36.5682H172.556C172.513 36.858 172.408 37.119 172.24 37.3512C172.073 37.5813 171.853 37.7646 171.578 37.9009C171.305 38.0352 170.988 38.1023 170.626 38.1023ZM175.794 33.0909V33.7301H173.25V33.0909H175.794ZM173.991 31.9148H174.745V36.5938C174.745 36.8068 174.776 36.9666 174.838 37.0732C174.902 37.1776 174.983 37.2479 175.081 37.2841C175.181 37.3182 175.286 37.3352 175.397 37.3352C175.48 37.3352 175.549 37.331 175.602 37.3224C175.655 37.3118 175.698 37.3033 175.73 37.2969L175.883 37.9744C175.832 37.9936 175.761 38.0128 175.669 38.032C175.577 38.0533 175.461 38.0639 175.321 38.0639C175.107 38.0639 174.899 38.0181 174.694 37.9265C174.492 37.8349 174.323 37.6953 174.189 37.5078C174.057 37.3203 173.991 37.0838 173.991 36.7983V31.9148ZM176.928 38V33.0909H177.682V38H176.928ZM177.312 32.2727C177.165 32.2727 177.038 32.2227 176.931 32.1225C176.827 32.0224 176.775 31.902 176.775 31.7614C176.775 31.6207 176.827 31.5004 176.931 31.4002C177.038 31.3001 177.165 31.25 177.312 31.25C177.459 31.25 177.584 31.3001 177.689 31.4002C177.795 31.5004 177.849 31.6207 177.849 31.7614C177.849 31.902 177.795 32.0224 177.689 32.1225C177.584 32.2227 177.459 32.2727 177.312 32.2727ZM181.058 38.1023C180.615 38.1023 180.226 37.9968 179.892 37.7859C179.559 37.5749 179.299 37.2798 179.112 36.9006C178.926 36.5213 178.834 36.0781 178.834 35.571C178.834 35.0597 178.926 34.6133 179.112 34.2319C179.299 33.8505 179.559 33.5543 179.892 33.3434C180.226 33.1325 180.615 33.027 181.058 33.027C181.501 33.027 181.889 33.1325 182.222 33.3434C182.556 33.5543 182.816 33.8505 183.001 34.2319C183.189 34.6133 183.283 35.0597 183.283 35.571C183.283 36.0781 183.189 36.5213 183.001 36.9006C182.816 37.2798 182.556 37.5749 182.222 37.7859C181.889 37.9968 181.501 38.1023 181.058 38.1023ZM181.058 37.4247C181.395 37.4247 181.672 37.3384 181.889 37.1658C182.106 36.9933 182.267 36.7663 182.372 36.4851C182.476 36.2038 182.528 35.8991 182.528 35.571C182.528 35.2429 182.476 34.9371 182.372 34.6538C182.267 34.3704 182.106 34.1413 181.889 33.9666C181.672 33.7919 181.395 33.7045 181.058 33.7045C180.722 33.7045 180.445 33.7919 180.227 33.9666C180.01 34.1413 179.849 34.3704 179.745 34.6538C179.64 34.9371 179.588 35.2429 179.588 35.571C179.588 35.8991 179.64 36.2038 179.745 36.4851C179.849 36.7663 180.01 36.9933 180.227 37.1658C180.445 37.3384 180.722 37.4247 181.058 37.4247ZM185.188 35.0469V38H184.434V33.0909H185.163V33.858H185.227C185.342 33.6087 185.516 33.4084 185.751 33.2571C185.985 33.1037 186.288 33.027 186.658 33.027C186.991 33.027 187.282 33.0952 187.531 33.2315C187.78 33.3658 187.974 33.5703 188.113 33.8452C188.251 34.1179 188.32 34.4631 188.32 34.8807V38H187.566V34.9318C187.566 34.5462 187.466 34.2457 187.266 34.0305C187.065 33.8132 186.791 33.7045 186.441 33.7045C186.2 33.7045 185.985 33.7567 185.795 33.8612C185.608 33.9656 185.46 34.1179 185.351 34.3182C185.243 34.5185 185.188 34.7614 185.188 35.0469ZM192.23 38V33.0909H192.959V33.8324H193.01C193.099 33.5895 193.261 33.3924 193.496 33.2411C193.73 33.0898 193.994 33.0142 194.288 33.0142C194.344 33.0142 194.413 33.0153 194.496 33.0174C194.579 33.0195 194.642 33.0227 194.684 33.027V33.794C194.659 33.7876 194.6 33.7781 194.509 33.7653C194.419 33.7504 194.324 33.7429 194.224 33.7429C193.986 33.7429 193.773 33.793 193.585 33.8931C193.4 33.9911 193.253 34.1275 193.144 34.3022C193.037 34.4748 192.984 34.6719 192.984 34.8935V38H192.23ZM197.487 38.1023C197.014 38.1023 196.606 37.9979 196.263 37.7891C195.922 37.5781 195.659 37.2841 195.474 36.907C195.291 36.5277 195.199 36.0866 195.199 35.5838C195.199 35.081 195.291 34.6378 195.474 34.2543C195.659 33.8686 195.917 33.5682 196.247 33.353C196.58 33.1357 196.967 33.027 197.411 33.027C197.666 33.027 197.919 33.0696 198.168 33.1548C198.417 33.2401 198.644 33.3786 198.849 33.5703C199.053 33.7599 199.216 34.0114 199.338 34.3246C199.459 34.6378 199.52 35.0234 199.52 35.4815V35.8011H195.736V35.1491H198.753C198.753 34.8722 198.698 34.625 198.587 34.4077C198.478 34.1903 198.323 34.0188 198.12 33.8931C197.92 33.7674 197.683 33.7045 197.411 33.7045C197.11 33.7045 196.85 33.7791 196.631 33.9283C196.413 34.0753 196.246 34.267 196.129 34.5036C196.012 34.7401 195.953 34.9936 195.953 35.2642V35.6989C195.953 36.0696 196.017 36.3839 196.145 36.6417C196.275 36.8974 196.455 37.0923 196.685 37.2266C196.915 37.3587 197.183 37.4247 197.487 37.4247C197.686 37.4247 197.864 37.397 198.024 37.3416C198.186 37.2841 198.326 37.1989 198.443 37.0859C198.56 36.9709 198.651 36.8281 198.715 36.6577L199.443 36.8622C199.367 37.1094 199.238 37.3267 199.057 37.5142C198.875 37.6996 198.652 37.8445 198.385 37.9489C198.119 38.0511 197.82 38.1023 197.487 38.1023ZM202.662 38.1023C202.201 38.1023 201.805 37.9936 201.473 37.7763C201.14 37.5589 200.885 37.2596 200.706 36.8782C200.527 36.4968 200.437 36.0611 200.437 35.571C200.437 35.0724 200.529 34.6325 200.712 34.2511C200.898 33.8675 201.155 33.5682 201.486 33.353C201.818 33.1357 202.206 33.027 202.649 33.027C202.994 33.027 203.305 33.0909 203.582 33.2188C203.859 33.3466 204.086 33.5256 204.263 33.7557C204.44 33.9858 204.549 34.2543 204.592 34.5611H203.838C203.78 34.3374 203.652 34.1392 203.454 33.9666C203.258 33.7919 202.994 33.7045 202.662 33.7045C202.368 33.7045 202.11 33.7812 201.888 33.9347C201.669 34.0859 201.497 34.3001 201.374 34.5771C201.252 34.8519 201.192 35.1747 201.192 35.5455C201.192 35.9247 201.251 36.255 201.371 36.5362C201.492 36.8175 201.662 37.0359 201.882 37.1914C202.103 37.3469 202.363 37.4247 202.662 37.4247C202.858 37.4247 203.036 37.3906 203.195 37.3224C203.355 37.2543 203.491 37.1562 203.601 37.0284C203.712 36.9006 203.791 36.7472 203.838 36.5682H204.592C204.549 36.858 204.444 37.119 204.276 37.3512C204.11 37.5813 203.889 37.7646 203.614 37.9009C203.341 38.0352 203.024 38.1023 202.662 38.1023ZM207.689 38.1023C207.246 38.1023 206.857 37.9968 206.523 37.7859C206.19 37.5749 205.93 37.2798 205.743 36.9006C205.557 36.5213 205.465 36.0781 205.465 35.571C205.465 35.0597 205.557 34.6133 205.743 34.2319C205.93 33.8505 206.19 33.5543 206.523 33.3434C206.857 33.1325 207.246 33.027 207.689 33.027C208.132 33.027 208.52 33.1325 208.852 33.3434C209.187 33.5543 209.447 33.8505 209.632 34.2319C209.82 34.6133 209.913 35.0597 209.913 35.571C209.913 36.0781 209.82 36.5213 209.632 36.9006C209.447 37.2798 209.187 37.5749 208.852 37.7859C208.52 37.9968 208.132 38.1023 207.689 38.1023ZM207.689 37.4247C208.026 37.4247 208.303 37.3384 208.52 37.1658C208.737 36.9933 208.898 36.7663 209.003 36.4851C209.107 36.2038 209.159 35.8991 209.159 35.571C209.159 35.2429 209.107 34.9371 209.003 34.6538C208.898 34.3704 208.737 34.1413 208.52 33.9666C208.303 33.7919 208.026 33.7045 207.689 33.7045C207.352 33.7045 207.075 33.7919 206.858 33.9666C206.641 34.1413 206.48 34.3704 206.375 34.6538C206.271 34.9371 206.219 35.2429 206.219 35.571C206.219 35.8991 206.271 36.2038 206.375 36.4851C206.48 36.7663 206.641 36.9933 206.858 37.1658C207.075 37.3384 207.352 37.4247 207.689 37.4247ZM214.903 33.0909L213.088 38H212.321L210.506 33.0909H211.324L212.679 37.0028H212.73L214.085 33.0909H214.903ZM217.781 38.1023C217.308 38.1023 216.9 37.9979 216.557 37.7891C216.216 37.5781 215.953 37.2841 215.768 36.907C215.585 36.5277 215.493 36.0866 215.493 35.5838C215.493 35.081 215.585 34.6378 215.768 34.2543C215.953 33.8686 216.211 33.5682 216.541 33.353C216.874 33.1357 217.261 33.027 217.705 33.027C217.96 33.027 218.213 33.0696 218.462 33.1548C218.711 33.2401 218.938 33.3786 219.143 33.5703C219.347 33.7599 219.51 34.0114 219.632 34.3246C219.753 34.6378 219.814 35.0234 219.814 35.4815V35.8011H216.03V35.1491H219.047C219.047 34.8722 218.992 34.625 218.881 34.4077C218.772 34.1903 218.617 34.0188 218.414 33.8931C218.214 33.7674 217.977 33.7045 217.705 33.7045C217.404 33.7045 217.144 33.7791 216.925 33.9283C216.707 34.0753 216.54 34.267 216.423 34.5036C216.306 34.7401 216.247 34.9936 216.247 35.2642V35.6989C216.247 36.0696 216.311 36.3839 216.439 36.6417C216.569 36.8974 216.749 37.0923 216.979 37.2266C217.209 37.3587 217.477 37.4247 217.781 37.4247C217.979 37.4247 218.158 37.397 218.318 37.3416C218.48 37.2841 218.62 37.1989 218.737 37.0859C218.854 36.9709 218.945 36.8281 219.009 36.6577L219.737 36.8622C219.661 37.1094 219.532 37.3267 219.351 37.5142C219.169 37.6996 218.946 37.8445 218.679 37.9489C218.413 38.0511 218.114 38.1023 217.781 38.1023ZM220.961 38V33.0909H221.69V33.8324H221.741C221.831 33.5895 221.993 33.3924 222.227 33.2411C222.461 33.0898 222.726 33.0142 223.02 33.0142C223.075 33.0142 223.144 33.0153 223.227 33.0174C223.31 33.0195 223.373 33.0227 223.416 33.027V33.794C223.39 33.7876 223.332 33.7781 223.24 33.7653C223.151 33.7504 223.056 33.7429 222.956 33.7429C222.717 33.7429 222.504 33.793 222.316 33.8931C222.131 33.9911 221.984 34.1275 221.875 34.3022C221.769 34.4748 221.716 34.6719 221.716 34.8935V38H220.961ZM224.945 39.8409C224.817 39.8409 224.703 39.8303 224.603 39.8089C224.503 39.7898 224.434 39.7706 224.395 39.7514L224.587 39.0866C224.77 39.1335 224.932 39.1506 225.073 39.1378C225.214 39.125 225.338 39.0621 225.447 38.9492C225.558 38.8384 225.659 38.6584 225.751 38.4091L225.891 38.0256L224.076 33.0909H224.894L226.249 37.0028H226.3L227.655 33.0909H228.474L226.39 38.7159C226.296 38.9695 226.18 39.1793 226.041 39.3455C225.903 39.5138 225.742 39.6385 225.559 39.7195C225.378 39.8004 225.173 39.8409 224.945 39.8409Z" fill="white"/>
</g>
<defs>
<clipPath id="clip0_2017_4871">
<rect width="233" height="43" fill="white"/>
</clipPath>
</defs>
</svg>
