<svg width="25" height="22" viewBox="0 0 25 22" fill="none" xmlns="http://www.w3.org/2000/svg">
<path d="M8.1 16.3571H16.9M8.1 16.3571C8.1 17.5406 7.11503 18.5 5.9 18.5C4.68497 18.5 3.7 17.5406 3.7 16.3571M8.1 16.3571C8.1 15.1736 7.11503 14.2143 5.9 14.2143C4.68497 14.2143 3.7 15.1736 3.7 16.3571M16.9 16.3571C16.9 17.5406 17.8849 18.5 19.1 18.5C20.3151 18.5 21.3 17.5406 21.3 16.3571M16.9 16.3571C16.9 15.1736 17.8849 14.2143 19.1 14.2143C20.3151 14.2143 21.3 15.1736 21.3 16.3571M3.7 16.3571H3.26C2.64394 16.3571 2.33591 16.3571 2.10061 16.2404C1.89364 16.1376 1.72536 15.9738 1.61989 15.7721C1.5 15.543 1.5 15.243 1.5 14.6429V13.3571C1.5 12.157 1.5 11.5569 1.73979 11.0986C1.9507 10.6954 2.28726 10.3675 2.70122 10.1621C3.17182 9.92857 3.78789 9.92857 5.02 9.92857H18.22C19.0375 9.92857 19.4463 9.92857 19.7883 9.98129C21.671 10.2718 23.1477 11.71 23.4459 13.5439C23.5 13.877 23.5 14.2751 23.5 15.0714C23.5 15.2705 23.5 15.37 23.4865 15.4533C23.4119 15.9118 23.0427 16.2713 22.572 16.344C22.4866 16.3571 22.3844 16.3571 22.18 16.3571H21.3M10.3 3.5V9.92857M3.7 9.92857L4.06467 7.79737C4.32591 6.27064 4.45654 5.50727 4.84763 4.93443C5.19238 4.42946 5.67676 4.02979 6.24481 3.78158C6.88923 3.5 7.68376 3.5 9.27283 3.5H12.9742C14.0073 3.5 14.5239 3.5 14.9928 3.6387C15.408 3.76149 15.7941 3.96279 16.1292 4.2311C16.5079 4.53418 16.7944 4.95283 17.3675 5.79011L20.2 9.92857" stroke="#206175" stroke-width="1.5" stroke-linecap="round" stroke-linejoin="round"/>
</svg>
