<svg width="20" height="20" viewBox="0 0 20 20" fill="none" xmlns="http://www.w3.org/2000/svg">
<path d="M8.063 6.5C8.0219 6.34019 8 6.17265 8 6C8 4.89543 8.8954 4 10 4C10.1413 4 10.2792 4.01466 10.4122 4.04253M3 2L1 1M17 2L19 1M2 8H1M19 8H18M3.6 19H16.4C16.9601 19 17.2401 19 17.454 18.891C17.6422 18.7951 17.7951 18.6422 17.891 18.454C18 18.2401 18 17.9601 18 17.4V16.6C18 16.0399 18 15.7599 17.891 15.546C17.7951 15.3578 17.6422 15.2049 17.454 15.109C17.2401 15 16.9601 15 16.4 15H3.6C3.03995 15 2.75992 15 2.54601 15.109C2.35785 15.2049 2.20487 15.3578 2.10899 15.546C2 15.7599 2 16.0399 2 16.6V17.4C2 17.9601 2 18.2401 2.10899 18.454C2.20487 18.6422 2.35785 18.7951 2.54601 18.891C2.75992 19 3.03995 19 3.6 19ZM15 12V6C15 3.23858 12.7614 1 10 1C7.23858 1 5 3.23858 5 6V12H15Z" stroke="#206175" stroke-width="1.5" stroke-linecap="round" stroke-linejoin="round"/>
</svg>
