<svg width="47" height="37" viewBox="0 0 47 37" fill="none" xmlns="http://www.w3.org/2000/svg">
<path d="M10.4275 3.64839C7.20253 3.95048 4.84331 5.9788 3.69617 9.42048C3.47973 10.0786 3.44727 10.3807 3.44727 11.7401C3.45809 13.1427 3.49055 13.3908 3.75028 14.1676C4.18317 15.4515 4.73509 16.3146 5.82812 17.4043C6.89951 18.4832 7.89514 19.0766 9.29119 19.4974C10.8929 19.9829 13.198 19.9721 14.4317 19.465C15.2001 19.1629 15.1784 19.1305 14.8646 20.4792C14.1178 23.5864 12.8841 25.8089 10.644 28.0314C9.31284 29.3692 8.32803 30.1461 6.79129 31.0955C6.26101 31.4191 5.74155 31.7536 5.62251 31.8291C5.42771 31.9694 5.48182 32.0665 6.47745 33.5014L7.53801 35.0334L8.83667 34.3753C15.0377 31.2249 19.5614 25.9168 20.9574 20.1555C21.8773 16.3793 21.5093 12.2472 20.0051 9.25864C19.4748 8.21211 18.3926 6.7556 17.5593 5.9788C15.7087 4.23099 13.133 3.38945 10.4275 3.64839Z" fill="#6E88D3"/>
<path d="M33.4999 3.65908C31.1731 3.87486 29.236 5.02928 27.959 6.97129C25.9244 10.0569 25.9569 13.6712 28.0239 16.5627C28.9546 17.8573 30.9134 19.152 32.58 19.562C34.1492 19.9612 36.1946 19.9396 37.4175 19.5081C37.7746 19.3894 38.0776 19.3139 38.1101 19.3354C38.2075 19.4433 37.8936 20.8998 37.5365 21.9571C36.779 24.2336 35.7076 25.9814 34.0193 27.7508C32.5584 29.2721 30.935 30.5236 29.0087 31.6348C28.5109 31.9153 28.4892 31.9477 28.6408 32.1635C28.7273 32.293 29.2143 32.9942 29.723 33.7279L30.6428 35.0549L31.7683 34.4723C34.4414 33.0913 36.4976 31.6025 38.4564 29.6497C42.5147 25.6146 44.5168 21.1048 44.5168 16.034C44.5168 12.0421 43.5319 9.19381 41.2593 6.59368C39.3871 4.44667 36.5625 3.37857 33.4999 3.65908Z" fill="#6E88D3"/>
</svg>
