<svg width="34" height="29" viewBox="0 0 34 29" fill="none" xmlns="http://www.w3.org/2000/svg">
<g filter="url(#filter0_d_98_11707)">
<path d="M9.18049 2.16942C7.21745 2.34904 5.78141 3.55507 5.08315 5.60147C4.9514 5.99279 4.93164 6.17241 4.93164 6.98071C4.93823 7.81467 4.95799 7.96221 5.11609 8.4241C5.37958 9.18749 5.71554 9.70069 6.38086 10.3486C7.03301 10.9901 7.63904 11.3429 8.48881 11.5931C9.46374 11.8818 10.8668 11.8754 11.6178 11.5739C12.0855 11.3943 12.0723 11.375 11.8813 12.1769C11.4268 14.0244 10.6758 15.3459 9.31223 16.6674C8.50199 17.4629 7.90254 17.9248 6.96713 18.4893C6.64435 18.6818 6.32816 18.8806 6.2557 18.9255C6.13713 19.0089 6.17006 19.0667 6.7761 19.9199L7.42166 20.8308L8.21214 20.4395C11.9867 18.5663 14.7402 15.4101 15.59 11.9845C16.1499 9.73918 15.9259 7.28222 15.0103 5.50525C14.6875 4.88299 14.0288 4.01696 13.5216 3.55507C12.3951 2.51583 10.8273 2.01546 9.18049 2.16942Z" fill="#6E88D3"/>
<path d="M23.2249 2.17595C21.8086 2.30425 20.6295 2.99066 19.8521 4.14537C18.6137 5.98007 18.6335 8.12912 19.8917 9.84835C20.4582 10.6182 21.6505 11.388 22.6649 11.6317C23.6201 11.8691 24.8651 11.8563 25.6095 11.5997C25.8269 11.5291 26.0113 11.4842 26.0311 11.497C26.0904 11.5612 25.8993 12.4272 25.682 13.0559C25.2208 14.4095 24.5687 15.4487 23.5411 16.5008C22.6518 17.4053 21.6637 18.1494 20.4911 18.8102C20.1881 18.977 20.1749 18.9962 20.2671 19.1245C20.3198 19.2015 20.6163 19.6185 20.9259 20.0547L21.4858 20.8438L22.1709 20.4973C23.798 19.6762 25.0496 18.7909 26.2419 17.6298C28.7121 15.2306 29.9308 12.5491 29.9308 9.53401C29.9308 7.16044 29.3314 5.46687 27.948 3.92084C26.8084 2.64425 25.0891 2.00916 23.2249 2.17595Z" fill="#6E88D3"/>
</g>
<defs>
<filter id="filter0_d_98_11707" x="-1" y="0.000488281" width="36" height="30" filterUnits="userSpaceOnUse" color-interpolation-filters="sRGB">
<feFlood flood-opacity="0" result="BackgroundImageFix"/>
<feColorMatrix in="SourceAlpha" type="matrix" values="0 0 0 0 0 0 0 0 0 0 0 0 0 0 0 0 0 0 127 0" result="hardAlpha"/>
<feOffset dy="4"/>
<feGaussianBlur stdDeviation="2"/>
<feComposite in2="hardAlpha" operator="out"/>
<feColorMatrix type="matrix" values="0 0 0 0 0 0 0 0 0 0 0 0 0 0 0 0 0 0 0.25 0"/>
<feBlend mode="normal" in2="BackgroundImageFix" result="effect1_dropShadow_98_11707"/>
<feBlend mode="normal" in="SourceGraphic" in2="effect1_dropShadow_98_11707" result="shape"/>
</filter>
</defs>
</svg>
