<svg width="10" height="3" viewBox="0 0 10 3" fill="none" xmlns="http://www.w3.org/2000/svg">
<path d="M1.03143 2.09495C0.759647 2.09495 0.525983 1.99883 0.330433 1.8066C0.134884 1.61105 0.0371094 1.37573 0.0371094 1.10063C0.0371094 0.82885 0.134884 0.596842 0.330433 0.404608C0.525983 0.209058 0.759647 0.111284 1.03143 0.111284C1.30321 0.111284 1.53687 0.209058 1.73242 0.404608C1.92797 0.596842 2.02575 0.82885 2.02575 1.10063C2.02575 1.28292 1.97934 1.4503 1.88654 1.60276C1.79705 1.75191 1.67773 1.87123 1.52859 1.96072C1.37944 2.0502 1.21372 2.09495 1.03143 2.09495ZM4.99627 2.09495C4.72449 2.09495 4.49083 1.99883 4.29528 1.8066C4.09973 1.61105 4.00195 1.37573 4.00195 1.10063C4.00195 0.82885 4.09973 0.596842 4.29528 0.404608C4.49083 0.209058 4.72449 0.111284 4.99627 0.111284C5.26805 0.111284 5.50172 0.209058 5.69727 0.404608C5.89281 0.596842 5.99059 0.82885 5.99059 1.10063C5.99059 1.28292 5.94419 1.4503 5.85139 1.60276C5.7619 1.75191 5.64258 1.87123 5.49343 1.96072C5.34428 2.0502 5.17856 2.09495 4.99627 2.09495ZM8.96112 2.09495C8.68933 2.09495 8.45567 1.99883 8.26012 1.8066C8.06457 1.61105 7.9668 1.37573 7.9668 1.10063C7.9668 0.82885 8.06457 0.596842 8.26012 0.404608C8.45567 0.209058 8.68933 0.111284 8.96112 0.111284C9.2329 0.111284 9.46656 0.209058 9.66211 0.404608C9.85766 0.596842 9.95543 0.82885 9.95543 1.10063C9.95543 1.28292 9.90903 1.4503 9.81623 1.60276C9.72674 1.75191 9.60742 1.87123 9.45827 1.96072C9.30913 2.0502 9.14341 2.09495 8.96112 2.09495Z" fill="#667085"/>
</svg>
