<svg width="12" height="12" viewBox="0 0 12 12" fill="none" xmlns="http://www.w3.org/2000/svg">
<g clip-path="url(#clip0_4002_14789)">
<path d="M5.68379 0.0328121C5.39317 0.128906 5.44942 0.0749998 2.79395 2.72578C1.39707 4.12031 0.220509 5.31562 0.175978 5.38125C-0.00214749 5.64609 -0.05371 6.04922 0.0470713 6.35391C0.199415 6.80625 0.560353 7.07344 1.07832 7.11562L1.26348 7.13203L1.27051 9.04453C1.27754 10.9195 1.27988 10.9594 1.32676 11.0859C1.50254 11.55 1.79551 11.8359 2.22442 11.9625C2.33457 11.9953 2.51035 12 3.47832 12C4.56113 12 4.60801 11.9977 4.68301 11.9531C4.7252 11.9273 4.7791 11.8734 4.80488 11.8312C4.84942 11.7562 4.85176 11.7094 4.85176 10.2656C4.85176 9.25078 4.86113 8.74687 4.87754 8.68359C4.91738 8.54297 5.02754 8.4 5.15176 8.32734L5.26192 8.26172H6.00254H6.74317L6.85801 8.33203C6.98692 8.41172 7.10879 8.59219 7.13457 8.73516C7.1416 8.78437 7.14863 9.48047 7.14863 10.2844C7.14863 11.8664 7.14395 11.8055 7.27754 11.9297L7.34082 11.9883L8.46817 11.9953C9.22285 12 9.6377 11.993 9.71973 11.9766C10.0432 11.9086 10.4182 11.6227 10.5658 11.332C10.7299 11.0039 10.7205 11.1375 10.7299 9.03281L10.7369 7.12969L10.9291 7.11328C11.4002 7.07344 11.7096 6.86719 11.9041 6.46875C11.9861 6.29531 11.9885 6.28828 11.9885 6C11.9885 5.70937 11.9885 5.70469 11.8994 5.51953C11.8104 5.33203 11.808 5.32969 9.23926 2.76094C6.66817 0.189843 6.66817 0.189843 6.48067 0.10078C6.30254 0.0164061 6.2791 0.0117188 6.03535 0.00703049C5.86895 0.00234318 5.74473 0.0117188 5.68379 0.0328121Z" fill="#3D7C85"/>
</g>
<defs>
<clipPath id="clip0_4002_14789">
<rect width="12" height="12" fill="white"/>
</clipPath>
</defs>
</svg>
