<svg width="16" height="16" viewBox="0 0 16 16" fill="none" xmlns="http://www.w3.org/2000/svg">
<g clip-path="url(#clip0_1919_17441)">
<path d="M7.57774 0.0437498C7.19024 0.171875 7.26524 0.0999994 3.72461 3.63437C1.86211 5.49375 0.293361 7.0875 0.233986 7.175C-0.00351436 7.52812 -0.0722644 8.06562 0.0621106 8.47187C0.265236 9.075 0.746486 9.43125 1.43711 9.4875L1.68399 9.50938L1.69336 12.0594C1.70274 14.5594 1.70586 14.6125 1.76836 14.7812C2.00274 15.4 2.39336 15.7812 2.96524 15.95C3.11211 15.9937 3.34649 16 4.63711 16C6.08086 16 6.14336 15.9969 6.24336 15.9375C6.29961 15.9031 6.37149 15.8312 6.40586 15.775C6.46524 15.675 6.46836 15.6125 6.46836 13.6875C6.46836 12.3344 6.48086 11.6625 6.50274 11.5781C6.55586 11.3906 6.70274 11.2 6.86836 11.1031L7.01524 11.0156H8.00274H8.99024L9.14336 11.1094C9.31524 11.2156 9.47774 11.4562 9.51211 11.6469C9.52149 11.7125 9.53086 12.6406 9.53086 13.7125C9.53086 15.8219 9.52461 15.7406 9.70274 15.9062L9.78711 15.9844L11.2902 15.9937C12.2965 16 12.8496 15.9906 12.959 15.9688C13.3902 15.8781 13.8902 15.4969 14.0871 15.1094C14.3059 14.6719 14.2934 14.85 14.3059 12.0438L14.3152 9.50625L14.5715 9.48438C15.1996 9.43125 15.6121 9.15625 15.8715 8.625C15.9809 8.39375 15.984 8.38438 15.984 8C15.984 7.6125 15.984 7.60625 15.8652 7.35938C15.7465 7.10938 15.7434 7.10625 12.3184 3.68125C8.89024 0.253125 8.89024 0.253125 8.64024 0.134375C8.40274 0.0218744 8.37149 0.015625 8.04649 0.00937462C7.82461 0.00312519 7.65899 0.015625 7.57774 0.0437498Z" fill="#3D7C85" fill-opacity="0.6"/>
</g>
<defs>
<clipPath id="clip0_1919_17441">
<rect width="16" height="16" fill="white"/>
</clipPath>
</defs>
</svg>
