<svg width="20" height="22" viewBox="0 0 20 22" fill="none" xmlns="http://www.w3.org/2000/svg">
<path d="M8.3125 20.7913H2.8C2.16994 20.7913 1.85491 20.7913 1.61426 20.6714C1.40258 20.566 1.23048 20.3979 1.12261 20.1909C1 19.9558 1 19.6479 1 19.0321V17.1454C1 16.4465 1 16.097 1.05398 15.8056C1.30473 14.4519 2.38872 13.3925 3.77378 13.1475C3.86031 13.1322 3.95166 13.1213 4.05522 13.1136C4.30839 13.0947 4.43497 13.0852 4.60406 13.0975C4.77981 13.1104 4.8781 13.1273 5.04771 13.1741C5.21089 13.219 5.50482 13.3492 6.09267 13.6095C6.44269 13.7644 6.80866 13.8911 7.1875 13.9864M13.375 5.39806C13.375 7.82705 11.3602 9.79613 8.87499 9.79613C6.38971 9.79613 4.375 7.82705 4.375 5.39806C4.375 2.96908 6.38971 1 8.87499 1C11.3602 1 13.375 2.96908 13.375 5.39806ZM15.0598 15.5267C14.2725 14.6701 12.9598 14.4396 11.9734 15.2241C10.9871 16.0085 10.8481 17.3201 11.6228 18.2479C12.0601 18.7717 13.0991 19.6899 13.9211 20.3903C14.3109 20.7225 14.5057 20.8886 14.7415 20.9565C14.9426 21.0145 15.177 21.0145 15.3781 20.9565C15.6139 20.8886 15.8087 20.7225 16.1985 20.3903C17.0204 19.6899 18.0595 18.7717 18.4968 18.2479C19.2715 17.3201 19.1495 16.0003 18.1462 15.2241C17.1428 14.4478 15.8471 14.6701 15.0598 15.5267Z" stroke="#3D7C85" stroke-width="1.5" stroke-linecap="round" stroke-linejoin="round"/>
</svg>
