<svg width="20" height="22" viewBox="0 0 20 22" fill="none" xmlns="http://www.w3.org/2000/svg">
<path d="M6.625 11.025L8.875 13.2698L13.375 8.78028M19 11.025C19 16.032 12.8575 19.6602 10.7216 20.7706C10.4906 20.8907 10.3751 20.9507 10.2149 20.9818C10.09 21.0061 9.91 21.0061 9.78512 20.9818C9.62492 20.9507 9.50939 20.8907 9.27842 20.7706C7.14245 19.6602 1 16.032 1 11.025V6.77976C1 5.88241 1 5.43374 1.14711 5.04806C1.27705 4.70735 1.48823 4.40334 1.76237 4.16231C2.07269 3.88947 2.49377 3.73194 3.33595 3.41685L9.36797 1.16013C9.60186 1.07263 9.71875 1.02888 9.83913 1.01153C9.94578 0.996156 10.0542 0.996156 10.1609 1.01153C10.2812 1.02888 10.3981 1.07263 10.632 1.16013L16.664 3.41685C17.5062 3.73194 17.9273 3.88947 18.2376 4.16231C18.5118 4.40334 18.7229 4.70735 18.8529 5.04806C19 5.43374 19 5.88241 19 6.77976V11.025Z" stroke="#3D7C85" stroke-width="1.5" stroke-linecap="round" stroke-linejoin="round"/>
</svg>
