<svg width="22" height="20" viewBox="0 0 22 20" fill="none" xmlns="http://www.w3.org/2000/svg">
<path d="M8.62782 13.3296L13.3592 8.80064M11.0697 3.63865L10.9303 3.50421C10.546 3.13359 10.3538 2.94829 10.1296 2.81577C9.93067 2.69828 9.71389 2.6117 9.48722 2.55921C9.23144 2.5 8.95967 2.5 8.41613 2.5H4.55556C3.311 2.5 2.68871 2.5 2.21336 2.73356C1.79521 2.939 1.45526 3.26681 1.24221 3.67002C1 4.1284 1 4.72845 1 5.92857V14.0714C1 15.2715 1 15.8716 1.24221 16.33C1.45526 16.7332 1.79521 17.061 2.21336 17.2664C2.68871 17.5 3.31099 17.5 4.55556 17.5H17.4444C18.689 17.5 19.3113 17.5 19.7867 17.2664C20.2048 17.061 20.5448 16.7332 20.7578 16.33C21 15.8716 21 15.2715 21 14.0714V8.07143C21 6.87132 21 6.27126 20.7578 5.81288C20.5448 5.40967 20.2048 5.08185 19.7867 4.87642C19.3113 4.64286 18.689 4.64286 17.4444 4.64286H13.5839C13.0403 4.64286 12.7686 4.64286 12.5128 4.58365C12.2861 4.53116 12.0693 4.44458 11.8704 4.32709C11.6462 4.19457 11.454 4.00927 11.0697 3.63865ZM14.3333 11.0714C14.3333 12.8467 12.841 14.2857 11 14.2857C9.159 14.2857 7.66667 12.8467 7.66667 11.0714C7.66667 9.29618 9.159 7.85714 11 7.85714C12.841 7.85714 14.3333 9.29618 14.3333 11.0714Z" stroke="#3D7C85" stroke-width="1.5" stroke-linecap="round" stroke-linejoin="round"/>
</svg>
