<svg width="14" height="12" viewBox="0 0 14 12" fill="none" xmlns="http://www.w3.org/2000/svg">
<path d="M12.6875 0.971538C12.332 1.03169 12.5289 0.848491 8.63242 4.73951L5.03125 8.33794L3.38242 6.69458C1.85664 5.17154 1.72266 5.04576 1.56406 4.9774C1.06367 4.75865 0.475781 4.93091 0.177734 5.38208C0.0519531 5.56802 0 5.75123 0 6.00005C0 6.24068 0.0519531 6.42388 0.164062 6.59888C0.207813 6.66724 1.17578 7.65708 2.31602 8.79459C4.58008 11.0559 4.47891 10.9684 4.86719 11.0286C5.09687 11.0669 5.31016 11.0313 5.54805 10.9219C5.71758 10.8426 5.95547 10.6102 9.76719 6.79849C13.6473 2.91841 13.8086 2.75162 13.8961 2.56841C13.9809 2.38794 13.9863 2.3606 13.9863 2.07623C13.9863 1.79732 13.9809 1.76177 13.9016 1.59771C13.6855 1.14107 13.1934 0.886772 12.6875 0.971538Z" fill="#3D7C85"/>
</svg>
