<svg width="12" height="12" viewBox="0 0 12 12" fill="none" xmlns="http://www.w3.org/2000/svg">
<path d="M0.449992 0.0492268C0.283586 0.114851 0.112492 0.285945 0.0492106 0.457039C-0.0164144 0.63282 -0.0164144 0.867195 0.0492106 1.04766C0.0960856 1.17657 0.206242 1.29141 2.50546 3.59063L4.91015 6.00001L2.50546 8.40938C0.206242 10.7086 0.0960856 10.8234 0.0492106 10.9524C-0.100789 11.3602 0.0843668 11.8125 0.457023 11.9508C0.632804 12.0164 0.867179 12.0164 1.04765 11.9508C1.17655 11.9039 1.2914 11.7938 3.59296 9.49454L5.99999 7.08985L8.40937 9.49454C10.7086 11.7938 10.8234 11.9039 10.9523 11.9508C11.3601 12.1008 11.8125 11.9156 11.9508 11.543C12.0164 11.3672 12.0164 11.1328 11.9508 10.9524C11.9039 10.8234 11.7937 10.7086 9.49452 8.40938L7.08984 6.00001L9.49452 3.59063C11.7937 1.29141 11.9039 1.17657 11.9508 1.04766C12.0164 0.867195 12.0164 0.63282 11.9508 0.457039C11.8125 0.084383 11.3601 -0.100774 10.9523 0.0492268C10.8234 0.0961018 10.7086 0.206258 8.40937 2.50548L5.99999 4.91016L3.59296 2.50548C1.2914 0.206258 1.17655 0.0961018 1.04765 0.0492268C0.869523 -0.0163984 0.621086 -0.0163984 0.449992 0.0492268Z" fill="#3D7C85" fill-opacity="0.8"/>
</svg>
