<svg width="26" height="25" viewBox="0 0 26 25" fill="none" xmlns="http://www.w3.org/2000/svg">
<path fill-rule="evenodd" clip-rule="evenodd" d="M2.33059 1.83059C0.5 3.66116 0.5 6.60744 0.5 12.5C0.5 18.3925 0.5 21.3389 2.33059 23.1694C4.16116 25 7.10744 25 13 25C18.8925 25 21.8389 25 23.6694 23.1694C25.5 21.3389 25.5 18.3925 25.5 12.5C25.5 6.60744 25.5 3.66116 23.6694 1.83059C21.8389 -1.43051e-07 18.8925 0 13 0C7.10744 0 4.16116 -1.43051e-07 2.33059 1.83059ZM15.1875 10C15.1875 10.5177 15.6073 10.9375 16.125 10.9375H16.9866L14.471 13.4532C14.3489 13.5753 14.1511 13.5753 14.029 13.4532L12.0468 11.471C11.1925 10.6167 9.80748 10.6167 8.9532 11.471L6.08709 14.3371C5.72097 14.7032 5.72097 15.2968 6.08709 15.6629C6.4532 16.029 7.0468 16.029 7.41291 15.6629L10.279 12.7968C10.4011 12.6747 10.5989 12.6747 10.721 12.7968L12.7032 14.779C13.5575 15.6333 14.9425 15.6333 15.7968 14.779L18.3125 12.2634V13.125C18.3125 13.6428 18.7323 14.0625 19.25 14.0625C19.7677 14.0625 20.1875 13.6428 20.1875 13.125V10C20.1875 9.48224 19.7677 9.0625 19.25 9.0625H16.125C15.6073 9.0625 15.1875 9.48224 15.1875 10Z" fill="#2770F1"/>
</svg>
