<svg width="26" height="27" viewBox="0 0 26 27" fill="none" xmlns="http://www.w3.org/2000/svg">
<path fill-rule="evenodd" clip-rule="evenodd" d="M13 26.5C20.1796 26.5 26 20.6796 26 13.5C26 6.32029 20.1796 0.5 13 0.5C5.82029 0.5 0 6.32029 0 13.5C0 20.6796 5.82029 26.5 13 26.5ZM8.31671 18.1194C8.63737 17.6868 9.248 17.596 9.68059 17.9167C10.6275 18.6185 11.7703 19.025 13 19.025C14.2297 19.025 15.3725 18.6185 16.3194 17.9167C16.7521 17.596 17.3627 17.6868 17.6833 18.1194C18.004 18.5521 17.9132 19.1627 17.4806 19.4832C16.2165 20.4203 14.6705 20.975 13 20.975C11.3295 20.975 9.78354 20.4203 8.51941 19.4832C8.08681 19.1627 7.99607 18.5521 8.31671 18.1194ZM18.2 11.55C18.2 12.6269 17.618 13.5 16.9 13.5C16.182 13.5 15.6 12.6269 15.6 11.55C15.6 10.473 16.182 9.6 16.9 9.6C17.618 9.6 18.2 10.473 18.2 11.55ZM9.1 13.5C9.81796 13.5 10.4 12.6269 10.4 11.55C10.4 10.473 9.81796 9.6 9.1 9.6C8.38204 9.6 7.8 10.473 7.8 11.55C7.8 12.6269 8.38204 13.5 9.1 13.5Z" fill="#2770F1"/>
</svg>
