<svg width="28" height="29" viewBox="0 0 28 29" fill="none" xmlns="http://www.w3.org/2000/svg">
<path d="M5.96391 27.6438H5.60001C4.28007 27.6438 3.62011 27.6438 3.21005 27.2337C2.80001 26.8237 2.80001 26.1637 2.80001 24.8438V23.287C2.80001 22.5611 2.80001 22.1982 2.98646 21.8741C3.17291 21.5498 3.45419 21.3863 4.01675 21.0591C7.72041 18.905 12.9801 17.6924 16.4908 19.7863C16.7265 19.927 16.9388 20.0968 17.1199 20.3003C17.9013 21.178 17.8444 22.5025 16.9439 23.2885C16.7537 23.4544 16.5511 23.5804 16.347 23.6241C16.5147 23.6046 16.6754 23.5824 16.8289 23.5579C18.1048 23.3543 19.1758 22.6725 20.1564 21.9318L22.6865 20.0206C23.5784 19.3468 24.9022 19.3467 25.7943 20.0202C26.5975 20.6267 26.8431 21.6252 26.3353 22.439C25.7432 23.3882 24.909 24.6024 24.1079 25.3443C23.3057 26.0872 22.1115 26.7506 21.1365 27.2211C20.0564 27.7425 18.8633 28.0428 17.6497 28.2393C15.1883 28.6376 12.6233 28.5769 10.1869 28.075C8.80955 27.7912 7.37912 27.6438 5.96391 27.6438Z" fill="#2770F1"/>
<path d="M12.4058 2.40869C13.1151 1.13623 13.4698 0.5 14 0.5C14.5302 0.5 14.885 1.13623 15.5942 2.40869L15.7777 2.73789C15.9793 3.09948 16.0801 3.28027 16.2372 3.39957C16.3944 3.51886 16.5902 3.56315 16.9815 3.65171L17.3379 3.73234C18.7154 4.04399 19.404 4.19982 19.5678 4.72673C19.7318 5.25365 19.2622 5.80268 18.3232 6.90076L18.0802 7.18485C17.8133 7.49688 17.6799 7.65291 17.62 7.84593C17.5599 8.03895 17.5801 8.24711 17.6204 8.66343L17.6571 9.04247C17.7991 10.5075 17.8702 11.2401 17.4411 11.5657C17.0121 11.8914 16.3673 11.5945 15.0776 11.0007L14.744 10.847C14.3775 10.6783 14.1942 10.5939 14 10.5939C13.8058 10.5939 13.6226 10.6783 13.2561 10.847L12.9224 11.0007C11.6328 11.5945 10.9879 11.8914 10.5589 11.5657C10.1299 11.2401 10.2009 10.5075 10.3429 9.04247L10.3796 8.66343C10.4199 8.2471 10.4401 8.03895 10.3801 7.84593C10.3201 7.65291 10.1866 7.49688 9.91981 7.18485L9.67687 6.90076C8.73783 5.80268 8.26831 5.25365 8.43217 4.72673C8.59602 4.19982 9.28473 4.04399 10.6621 3.73234L11.0185 3.65171C11.4099 3.56315 11.6056 3.51886 11.7628 3.39957C11.9199 3.28027 12.0207 3.09948 12.2223 2.73789L12.4058 2.40869Z" fill="#2770F1"/>
<path d="M24.4029 8.45434C24.7576 7.81811 24.9349 7.5 25.2 7.5C25.4652 7.5 25.6424 7.81813 25.9972 8.45434L26.0889 8.61895C26.1897 8.79975 26.2401 8.89015 26.3186 8.94979C26.3972 9.00944 26.495 9.03158 26.6907 9.07586L26.869 9.11618C27.5576 9.272 27.902 9.34991 27.9839 9.61337C28.0658 9.87683 27.8312 10.1513 27.3616 10.7004L27.2401 10.8424C27.1067 10.9985 27.04 11.0765 27.0099 11.173C26.98 11.2695 26.9901 11.3736 27.0102 11.5817L27.0286 11.7713C27.0995 12.5037 27.1351 12.87 26.9206 13.0328C26.7061 13.1956 26.3837 13.0472 25.7389 12.7503L25.572 12.6736C25.3887 12.5891 25.2972 12.547 25.2 12.547C25.1029 12.547 25.0113 12.5891 24.828 12.6736L24.6612 12.7503C24.0163 13.0472 23.6939 13.1956 23.4794 13.0328C23.2649 12.87 23.3005 12.5037 23.3715 11.7713L23.3898 11.5817C23.41 11.3736 23.4201 11.2695 23.3901 11.173C23.36 11.0765 23.2934 10.9985 23.1599 10.8424L23.0384 10.7004C22.569 10.1513 22.3342 9.87683 22.4161 9.61337C22.498 9.34991 22.8424 9.272 23.5311 9.11618L23.7093 9.07586C23.905 9.03158 24.0029 9.00944 24.0814 8.94979C24.16 8.89015 24.2104 8.79975 24.3112 8.61895L24.4029 8.45434Z" fill="#2770F1"/>
<path d="M2.00289 8.45434C2.35755 7.81811 2.53489 7.5 2.80001 7.5C3.06513 7.5 3.24246 7.81813 3.59713 8.45434L3.68888 8.61895C3.78967 8.79975 3.84005 8.89015 3.91862 8.94979C3.99719 9.00944 4.09505 9.03158 4.29076 9.07586L4.46893 9.11618C5.15765 9.272 5.50201 9.34991 5.58394 9.61337C5.66586 9.87683 5.4311 10.1513 4.96158 10.7004L4.84012 10.8424C4.70668 10.9985 4.63997 11.0765 4.60997 11.173C4.57995 11.2695 4.59003 11.3736 4.61021 11.5817L4.62858 11.7713C4.69956 12.5037 4.73506 12.87 4.52057 13.0328C4.30607 13.1956 3.98367 13.0472 3.33883 12.7503L3.17199 12.6736C2.98874 12.5891 2.89713 12.547 2.80001 12.547C2.70289 12.547 2.61127 12.5891 2.42803 12.6736L2.26119 12.7503C1.61636 13.0472 1.29394 13.1956 1.07945 13.0328C0.864954 12.87 0.900458 12.5037 0.971438 11.7713L0.989806 11.5817C1.00998 11.3736 1.02006 11.2695 0.990044 11.173C0.960042 11.0765 0.893332 10.9985 0.759898 10.8424L0.638434 10.7004C0.168916 10.1513 -0.0658502 9.87683 0.0160779 9.61337C0.0980059 9.34991 0.442364 9.272 1.13108 9.11618L1.30926 9.07586C1.50496 9.03158 1.60282 9.00944 1.68139 8.94979C1.75996 8.89015 1.81036 8.79975 1.91113 8.61895L2.00289 8.45434Z" fill="#2770F1"/>
</svg>
