<svg width="26" height="27" viewBox="0 0 26 27" fill="none" xmlns="http://www.w3.org/2000/svg">
<path fill-rule="evenodd" clip-rule="evenodd" d="M0 13.2059V8.12352C0 4.52975 0 2.73288 1.14228 1.61644C2.28457 0.5 4.12304 0.5 7.8 0.5H18.2C21.8769 0.5 23.7154 0.5 24.8577 1.61644C26 2.73288 26 4.52975 26 8.12352V13.2059C26 16.7996 26 18.5964 24.8577 19.7129C24.0174 20.5342 22.8004 20.7514 20.7519 20.8088C20.7471 19.8739 20.4148 18.9403 19.7549 18.1835C19.7176 18.1407 19.6951 18.0875 19.6904 18.0314C19.5274 16.0347 17.9053 14.4491 15.8623 14.2898C15.805 14.2853 15.7505 14.2632 15.7067 14.2268C14.1469 12.9276 11.8526 12.9276 10.2928 14.2268C10.249 14.2632 10.1946 14.2853 10.1372 14.2898C8.09429 14.4491 6.47205 16.0347 6.30902 18.0314C6.30444 18.0875 6.28189 18.1407 6.24458 18.1835C5.58474 18.9403 5.25243 19.8739 5.24766 20.8088C3.19943 20.7514 1.98251 20.5342 1.14228 19.7129C0 18.5964 0 16.7996 0 13.2059ZM8.125 5.58234C8.125 5.05605 8.56153 4.6294 9.1 4.6294H16.9C17.4385 4.6294 17.875 5.05605 17.875 5.58234C17.875 6.10863 17.4385 6.53528 16.9 6.53528H9.1C8.56153 6.53528 8.125 6.10863 8.125 5.58234ZM6.5 9.07646C5.96153 9.07646 5.525 9.50311 5.525 10.0294C5.525 10.5557 5.96153 10.9823 6.5 10.9823H19.5C20.0385 10.9823 20.475 10.5557 20.475 10.0294C20.475 9.50311 20.0385 9.07646 19.5 9.07646H6.5Z" fill="#2770F1"/>
<path fill-rule="evenodd" clip-rule="evenodd" d="M14.442 15.6774C13.6109 14.9852 12.3886 14.9852 11.5577 15.6774C11.2015 15.974 10.7588 16.1532 10.2923 16.1896C9.20396 16.2746 8.33969 17.1193 8.25284 18.183C8.21562 18.6389 8.03222 19.0715 7.72875 19.4197C7.02056 20.2318 7.02056 21.4264 7.72875 22.2387C8.03222 22.5867 8.21562 23.0195 8.25284 23.4752C8.33969 24.5391 9.20396 25.3838 10.2923 25.4687C10.7588 25.505 11.2015 25.6843 11.5577 25.9808C12.3886 26.6731 13.6109 26.6731 14.442 25.9808C14.798 25.6843 15.2408 25.505 15.7071 25.4687C16.7956 25.3838 17.6599 24.5391 17.7467 23.4752C17.7839 23.0195 17.9673 22.5867 18.2707 22.2387C18.979 21.4264 18.979 20.2318 18.2707 19.4197C17.9673 19.0715 17.7839 18.6389 17.7467 18.183C17.6599 17.1193 16.7956 16.2746 15.7071 16.1896C15.2408 16.1532 14.798 15.974 14.442 15.6774ZM15.6152 20.2555C16.009 19.8964 16.0302 19.2934 15.6628 18.9086C15.2954 18.5239 14.6784 18.5031 14.2848 18.8621L12.1642 20.7965L11.7152 20.3868C11.3216 20.0278 10.7046 20.0486 10.3372 20.4333C9.96982 20.8181 9.99109 21.4211 10.3847 21.7802L11.499 22.7966C11.8737 23.1383 12.4549 23.1383 12.8296 22.7966L15.6152 20.2555Z" fill="#2770F1"/>
</svg>
