<svg width="24" height="29" viewBox="0 0 24 29" fill="none" xmlns="http://www.w3.org/2000/svg">
<path d="M17.75 5.8C17.75 9.00325 15.1756 11.6 12 11.6C8.82436 11.6 6.25 9.00325 6.25 5.8C6.25 2.59675 8.82436 0 12 0C15.1756 0 17.75 2.59675 17.75 5.8Z" fill="#2770F1"/>
<path d="M17.2874 16.6791C16.6073 16.6873 15.9735 16.7124 15.4211 16.7872C14.4969 16.9127 13.4855 17.2122 12.6496 18.0553C11.8138 18.8983 11.5169 19.9186 11.3927 20.8509C11.281 21.6885 11.2811 22.7121 11.2812 23.8003V24.0497C11.2811 25.1379 11.281 26.1615 11.3927 26.9991C11.4798 27.6532 11.652 28.3507 12.0358 29C12.0239 29 12.0119 29 12 29C0.5 29 0.5 26.0787 0.5 22.475C0.5 18.8713 5.64872 15.95 12 15.95C13.9064 15.95 15.7044 16.2132 17.2874 16.6791Z" fill="#2770F1"/>
<path fill-rule="evenodd" clip-rule="evenodd" d="M14.1744 28.2567C14.9111 29 16.097 29 18.4688 29C20.8405 29 22.0264 29 22.7631 28.2567C23.5 27.5136 23.5 26.3174 23.5 23.925C23.5 21.5326 23.5 20.3364 22.7631 19.5933C22.0264 18.85 20.8405 18.85 18.4688 18.85C16.097 18.85 14.9111 18.85 14.1744 19.5933C13.4375 20.3364 13.4375 21.5326 13.4375 23.925C13.4375 26.3174 13.4375 27.5136 14.1744 28.2567ZM17.0695 26.0659C16.0602 25.337 14.875 24.4808 14.875 22.9967C14.875 21.3584 16.8516 20.1963 18.4688 21.7715C20.0859 20.1963 22.0625 21.3584 22.0625 22.9967C22.0625 24.4808 20.8773 25.337 19.868 26.0659C19.7632 26.1416 19.6602 26.216 19.5607 26.2897C19.1875 26.5653 18.8281 26.825 18.4688 26.825C18.1094 26.825 17.75 26.5653 17.3768 26.2897C17.2774 26.216 17.1743 26.1416 17.0695 26.0659Z" fill="#2770F1"/>
</svg>
