<svg width="26" height="27" viewBox="0 0 26 27" fill="none" xmlns="http://www.w3.org/2000/svg">
<path fill-rule="evenodd" clip-rule="evenodd" d="M3.32558 24.686H0.906977C0.406072 24.686 0 25.0921 0 25.593C0 26.0939 0.406072 26.5 0.906977 26.5H25.093C25.5939 26.5 26 26.0939 26 25.593C26 25.0921 25.5939 24.686 25.093 24.686H22.6744V18.3372C22.6744 14.9508 22.6744 13.2577 22.0153 11.9642C21.4357 10.8265 20.5107 9.90152 19.373 9.32182C18.0796 8.66279 16.3864 8.66279 13 8.66279C9.61364 8.66279 7.92046 8.66279 6.62704 9.32182C5.48931 9.90152 4.56431 10.8265 3.98461 11.9642C3.32558 13.2577 3.32558 14.9508 3.32558 18.3372V24.686ZM14.814 20.1512C14.814 20.8226 14.4492 21.4088 13.907 21.7224V24.686H12.093V21.7224C11.5508 21.4088 11.186 20.8226 11.186 20.1512C11.186 19.1494 11.9982 18.3372 13 18.3372C14.0018 18.3372 14.814 19.1494 14.814 20.1512ZM16.6279 11.1599C16.127 11.1599 15.7209 11.566 15.7209 12.0669C15.7209 12.5679 16.127 12.9738 16.6279 12.9738C17.6461 12.9738 18.398 13.746 18.364 14.6763C18.3457 15.1768 18.7367 15.5974 19.2372 15.6157C19.7379 15.6339 20.1585 15.243 20.1767 14.7424C20.2513 12.6979 18.5846 11.1599 16.6279 11.1599Z" fill="#2770F1"/>
<path d="M13 0.5C13.5009 0.5 13.907 0.906072 13.907 1.40698V5.03488C13.907 5.53579 13.5009 5.94186 13 5.94186C12.4991 5.94186 12.093 5.53579 12.093 5.03488V1.40698C12.093 0.906072 12.4991 0.5 13 0.5Z" fill="#2770F1"/>
<path d="M24.525 5.67621L22.7111 7.49017C22.3569 7.84436 21.7827 7.84436 21.4285 7.49017C21.0743 7.13597 21.0743 6.5617 21.4285 6.20751L23.2424 4.39355C23.5966 4.03936 24.1708 4.03936 24.525 4.39355C24.8792 4.74775 24.8792 5.32202 24.525 5.67621Z" fill="#2770F1"/>
<path d="M2.75761 4.39355C2.40342 4.03936 1.82914 4.03936 1.47495 4.39355C1.12076 4.74775 1.12076 5.32202 1.47495 5.67621L3.2889 7.49017C3.6431 7.84436 4.21737 7.84436 4.57156 7.49017C4.92575 7.13597 4.92575 6.5617 4.57156 6.20751L2.75761 4.39355Z" fill="#2770F1"/>
</svg>
