<svg width="28" height="23" viewBox="0 0 28 23" fill="none" xmlns="http://www.w3.org/2000/svg">
<path fill-rule="evenodd" clip-rule="evenodd" d="M4.38076 6.38149L3.82558 8.58824H0.976744C0.437308 8.58824 0 9.0228 0 9.55882C0 10.0948 0.437308 10.5294 0.976744 10.5294H27.0233C27.5627 10.5294 28 10.0948 28 9.55882C28 9.0228 27.5627 8.58824 27.0233 8.58824H24.1744L23.6192 6.38149C22.9086 3.55685 22.5533 2.14453 21.4935 1.32226C20.4336 0.5 18.9686 0.5 16.0385 0.5H11.9615C9.03137 0.5 7.56636 0.5 6.50654 1.32226C5.44673 2.14453 5.0914 3.55685 4.38076 6.38149ZM6.83721 22.5C8.95109 22.5 10.7289 21.0701 11.2445 19.1305L12.6896 18.4125C13.5145 18.0027 14.4855 18.0027 15.3104 18.4125L16.7555 19.1305C17.2711 21.0701 19.0489 22.5 21.1628 22.5C23.6802 22.5 25.7209 20.4721 25.7209 17.9706C25.7209 15.4691 23.6802 13.4412 21.1628 13.4412C19.0008 13.4412 17.1904 14.9369 16.7222 16.9437L16.1841 16.6763C14.8091 15.9932 13.1909 15.9932 11.8159 16.6763L11.2777 16.9437C10.8096 14.9369 8.99919 13.4412 6.83721 13.4412C4.31981 13.4412 2.27907 15.4691 2.27907 17.9706C2.27907 20.4721 4.31981 22.5 6.83721 22.5Z" fill="#2770F1"/>
</svg>
