<svg width="24" height="29" viewBox="0 0 24 29" fill="none" xmlns="http://www.w3.org/2000/svg">
<path d="M4.2353 4.4611C4.2353 6.628 6.67191 8.91066 8.68193 10.4251C9.81022 11.275 10.3742 11.7 11.2941 11.7C12.214 11.7 12.7782 11.275 13.9063 10.4251C15.9164 8.91068 18.3529 6.62804 18.3529 4.46109C18.3529 0.554851 14.4705 -0.903554 11.2941 2.11399C8.11776 -0.903554 4.2353 0.554851 4.2353 4.4611Z" fill="#2770F1"/>
<path d="M3.19049 27.6438H2.82353C1.4925 27.6438 0.826998 27.6438 0.413492 27.2337C8.07819e-08 26.8237 0 26.1637 0 24.8438V23.287C0 22.5611 1.81759e-07 22.1982 0.188019 21.8741C0.376038 21.5498 0.659676 21.3863 1.22697 21.0591C4.96175 18.905 10.2657 17.6924 13.8058 19.7863C14.0435 19.927 14.2576 20.0968 14.4402 20.3004C15.2281 21.178 15.1708 22.5025 14.2628 23.2885C14.0709 23.4544 13.8666 23.5804 13.6608 23.6241C13.8299 23.6046 13.992 23.5824 14.1467 23.5579C15.4334 23.3543 16.5134 22.6725 17.5022 21.9318L20.0536 20.0206C20.953 19.3468 22.288 19.3467 23.1875 20.0202C23.9975 20.6267 24.2451 21.6252 23.733 22.439C23.136 23.3882 22.2947 24.6024 21.4869 25.3443C20.678 26.0872 19.4738 26.7506 18.4906 27.2211C17.4014 27.7425 16.1983 28.0428 14.9745 28.2393C12.4924 28.6376 9.90579 28.5769 7.44894 28.075C6.06005 27.7912 4.61759 27.6438 3.19049 27.6438Z" fill="#2770F1"/>
</svg>
