<svg width="20" height="20" viewBox="0 0 20 20" fill="none" xmlns="http://www.w3.org/2000/svg">
<path fill-rule="evenodd" clip-rule="evenodd" d="M4.70588 2.35294C3.40639 2.35294 2.35294 3.40639 2.35294 4.70588C2.35294 6.00538 3.40639 7.05882 4.70588 7.05882C6.00538 7.05882 7.05882 6.00538 7.05882 4.70588C7.05882 3.40639 6.00538 2.35294 4.70588 2.35294ZM0 4.70588C0 2.10689 2.10689 0 4.70588 0C7.30482 0 9.41177 2.10689 9.41177 4.70588C9.41177 7.30482 7.30482 9.41177 4.70588 9.41177C2.10689 9.41177 0 7.30482 0 4.70588ZM15.2941 12.9412C13.9946 12.9412 12.9412 13.9946 12.9412 15.2941C12.9412 16.5936 13.9946 17.6471 15.2941 17.6471C16.5936 17.6471 17.6471 16.5936 17.6471 15.2941C17.6471 13.9946 16.5936 12.9412 15.2941 12.9412ZM10.5882 15.2941C10.5882 12.6952 12.6952 10.5882 15.2941 10.5882C17.8931 10.5882 20 12.6952 20 15.2941C20 17.8931 17.8931 20 15.2941 20C12.6952 20 10.5882 17.8931 10.5882 15.2941ZM18.4789 3.18484C18.9384 2.72539 18.9384 1.98049 18.4789 1.52105C18.0195 1.06161 17.2746 1.06161 16.8152 1.52105L1.52105 16.8152C1.06161 17.2746 1.06161 18.0195 1.52105 18.4789C1.98049 18.9384 2.72539 18.9384 3.18484 18.4789L18.4789 3.18484Z" fill="#3D7C85"/>
</svg>
