<svg width="26" height="25" viewBox="0 0 26 25" fill="none" xmlns="http://www.w3.org/2000/svg">
<path d="M12.0554 1.21739C12.3667 0.321828 13.6333 0.321828 13.9446 1.21739L16.2982 7.98861C16.4356 8.38368 16.8043 8.65155 17.2224 8.66008L24.3896 8.80613C25.3375 8.82545 25.7289 10.03 24.9733 10.6028L19.2609 14.9337C18.9276 15.1864 18.7867 15.6198 18.9078 16.0201L20.9837 22.8816C21.2583 23.7891 20.2336 24.5336 19.4554 23.992L13.5712 19.8975C13.2279 19.6586 12.7721 19.6586 12.4288 19.8975L6.54463 23.992C5.76639 24.5336 4.74174 23.7891 5.01629 22.8816L7.09216 16.0201C7.21327 15.6198 7.07245 15.1864 6.73915 14.9337L1.02666 10.6028C0.271123 10.03 0.662503 8.82545 1.61043 8.80613L8.77757 8.66008C9.19574 8.65155 9.56443 8.38368 9.70176 7.98861L12.0554 1.21739Z" fill="#206175"/>
</svg>
