<svg width="24" height="24" viewBox="0 0 24 24" fill="none" xmlns="http://www.w3.org/2000/svg">
<path d="M11.0349 1.05678C11.3019 0.0726118 12.6981 0.0726101 12.9651 1.05678L14.3009 5.97986C14.4604 6.56771 15.104 6.87762 15.663 6.63581L20.3449 4.61072C21.2809 4.20589 22.1514 5.29741 21.5484 6.11982L18.5323 10.2337C18.1721 10.7249 18.3311 11.4213 18.8687 11.7076L23.3711 14.1054C24.2711 14.5848 23.9605 15.9459 22.9416 15.9873L17.8447 16.1941C17.2361 16.2188 16.7907 16.7773 16.9021 17.3761L17.8346 22.3912C18.021 23.3938 16.7631 23.9996 16.0955 23.2287L12.7559 19.3728C12.3571 18.9124 11.6429 18.9124 11.2441 19.3728L7.9045 23.2287C7.23689 23.9996 5.97903 23.3938 6.16545 22.3912L7.09794 17.3761C7.20929 16.7773 6.76395 16.2188 6.15535 16.1941L1.05844 15.9873C0.0395248 15.9459 -0.271142 14.5848 0.62893 14.1055L5.13133 11.7076C5.66895 11.4213 5.82789 10.7249 5.46774 10.2337L2.4516 6.11982C1.84865 5.29741 2.71911 4.20589 3.65506 4.61072L8.33697 6.63581C8.89602 6.87762 9.53955 6.56771 9.69906 5.97986L11.0349 1.05678Z" fill="white"/>
</svg>
