<svg width="24" height="27" viewBox="0 0 24 27" fill="none" xmlns="http://www.w3.org/2000/svg">
<path d="M11.0438 1.62492C11.3324 0.681727 12.6676 0.68173 12.9562 1.62492L14.7273 7.41259C14.8809 7.91463 15.3966 8.21238 15.9082 8.09441L21.806 6.73434C22.7671 6.51269 23.4348 7.66904 22.7622 8.39058L18.6355 12.8182C18.2775 13.2023 18.2775 13.7978 18.6355 14.1818L22.7622 18.6094C23.4348 19.331 22.7671 20.4873 21.806 20.2657L15.9082 18.9056C15.3966 18.7876 14.8809 19.0854 14.7273 19.5874L12.9562 25.3751C12.6676 26.3183 11.3324 26.3183 11.0438 25.3751L9.27273 19.5874C9.1191 19.0854 8.60338 18.7876 8.09179 18.9056L2.19399 20.2657C1.23286 20.4873 0.565246 19.331 1.23776 18.6094L5.36451 14.1818C5.72248 13.7977 5.72248 13.2022 5.36451 12.8182L1.23776 8.39058C0.565243 7.66903 1.23286 6.51269 2.19399 6.73434L8.09179 8.09441C8.60338 8.21239 9.1191 7.91463 9.27273 7.41259L11.0438 1.62492Z" fill="#206175"/>
</svg>
